/* XPM */
static char *result[] = {
/* columns rows colors chars-per-pixel */
"60 60 34 1 ",
"  c #17320C",
". c #1C350E",
"X c #1F380F",
"o c #1C3511",
"O c #1F3A14",
"+ c #1F3C18",
"@ c #20360F",
"# c #21380F",
"$ c #213712",
"% c #233B14",
"& c #293E16",
"* c #263D18",
"= c #293E19",
"- c #264016",
"; c #2B4215",
": c #26401A",
"> c #2C421A",
", c #2F4819",
"< c #304217",
"1 c #32451B",
"2 c #33491B",
"3 c #2D4521",
"4 c #2F4823",
"5 c #324621",
"6 c #344A23",
"7 c #384D27",
"8 c #3D522C",
"9 c #40552E",
"0 c #415631",
"q c #455A34",
"w c #485E39",
"e c #4D633D",
"r c #526741",
"t c #536843",
/* pixels */
"2222222222222222222255<<=====&$&$=$==$$*$***++**+++$+++$+***",
"22222,2221222<11<<<255<======&==5======$*$+$+$o*++++*+*++oo+",
"2222222212222<<<<122<<==<=========<===$$***$++++++$++*+*o*+o",
"2222222212<<2<21<1<<<==<<=========<==$$=o+ooo+++++++++++++*+",
"222222222<22117=<7<<<$=<==&=========*$*$$++++++oo+++$++oo+**",
"22222222<2221111<<<<&<55==$&========*$**==33==+++++$+++++*o+",
"222222222111111=<<<<&<<<=&=&==&$====**====333+o+o++*$$+++oo+",
"2222222<2111111=<<<<<<<<&&$&$=$====***===333++++*+++++++$++o",
"222221222121<<21<<&&<<<<&&=&$$==*=*==3==::3:%+++o+++++$*$o++",
"2222211<2111111=<<&<<<==&&=&===$%=3====**::*%$$+*+$+$++++$$o",
"22222,2<<1111<<1&&<<<=<&&&&$=$$==33==3=**=:*$*%%*+**++*$*+$$",
"2222,>,>111&<<&&<&====&=&&&=$==$=>====****=$+*::=**+*$*+$*$+",
"22222<,<;<<<<<<&&&&&==&&=$=====$==:===**=**+=344==***++*+*++",
"2222<22<1<1;<<=1<<<&=$&==============::*=*%=35335=*+****++++",
"22222<2<1111><25<<<$===$=$=$$===>=**==*:**:3==*33=*+$****+**",
"22722212,>>=>2775<=<$=====$=====****===*=*===**=****==$=*==5",
"6552178861&1=57775==&&*=***$==****+******&***===3=**=$=$*=56",
"222268ee91&&=55555===$****$*=*$&*$$*****=*&=*=5553=***=*=557",
"221550tr9=&==155<=&$**==*******%%*%*****&=**=5553==***====51",
"622558wq91&==11=<<$&**$=*$*%$$*%+*$*%*$*$**=5======*$%$**===",
"22255707<<&&=>=&=$&$&&==***$*$*$$$*$$*$***=======***$$****==",
"26221761&&&&;&====&=&$$=***o$*$*+*+$$$*%*====*===**$**$$$%*=",
"22621111<;<&>&=%===$&&&=*o**$$%%$%*$*$%*$*==**==**$$$$$$*$$=",
"77221111;&<&&;==$$$=&===*$*$*$%%+*$$+*$+***$$=*$%$+*%%%$$$$=",
"22222211<&&&&;======5<<=*$**o$*o%+$$%%***%%&%**%%%%$*%+$+O%$",
"77221111;&;>>&&&==<<555=%**$****%%%%+*%*********$$$++$*=--%o",
"2722111<&;;>>;*&=<155<&&$$$*****%%***%%$***&&%%$$$*++*:33:O+",
"22221<<<<1>>&&&&=<555=&&*$*$***$**>13=%+%$%=%%$$$*+$**:=:,--",
"22221<<<<<>>&&<&<<<5<<&&$&%%****&1565=$o$$%&&#%#OO-+*::3:::-",
"222<<<<1<2>>&&&<<=<<<<<<&=******=1565=o@$$$$#%&*-+-++:3:,-++",
"22<22<<<1<<<&<&&&<&<12111=%%=>%%=267=$@@$$$$%#:;----+-::-+-+",
"2222<<<1<1<<&&<&&&<122119=%*>:*=1666=$$$$$%$$$%----+---+OOXO",
"2221,,,,;;-,-;:;&<<<<222<&&&>=*,6261$$$$$=$$$$&$-O--OO-OXXXO",
"2222,,;;-,;,;;;;&<<<22<<&##&>>>2666:@@$$**$$$$$$-OXO-OOXOOX-",
"2222,,,,,;;;;*;*;&&<<<<&&&&&1&>2561%@@%%$$o$@@@$O--O#X-X-XOO",
"222,,;;;;;;;;>;;&;&;<<;&&&&&=;><11=%$$$$$ooo@@@@XXX#O#O-OOOX",
"222,,,,;;;;;;;:;;;&;;;;;&&&&&&;<,>%@$$$$@@@$@@@@X#OOOO%O-XXO",
"222,,,;;;;;;;**;;;;&&;#&&&&&&<;<=*&@@$$$$%&&@@@$OXXOOX%-OOOX",
"222,,;;;;;;;;%;&&#;;;;&&&#&&&&&&*%@$$@%&&=1=@@@&-OX##-%O-OO-",
"222,,,,;;;;-;;;;;;;;;#;;#&&##&#&%@@$&@&%===%@@&=;-OO#O%%OOO-",
",,,,;,,,;;;#;;;#;;;;#;;##&&&#&&#&@@@#@&=11*@@%&<,*%O$%#%%%O%",
",,,,,;;;;;;;;;;;-;-;;;;#;&##&#&&#$&&&&*&==&@@*>,:%O#%#%%OOXX",
",,,;;;;;;;;;;;#;-;;-;;-;#&#&#&&#&&%*%%&%==&%*:>3-XXXXX$OXXOX",
",,,;,,,;;;;;;#;;;-;;--;##&;##&&#%&&&%&%&=&%%*::*$XXXXXXXXXX.",
",2<<;,;;;;;;;----;--;%;#;;&##&#;&&%&@&%&&&%%*;:*%XXXOXX..X..",
"22,,,,;;;;;;;;;;;-;;;;;&&#&&;#&##%%@&#%%##&%&;%$##$%XX... ..",
"22,,,;,;;;;;;--;;;;;;-;&&;#;###%&@#&&@#&%%%&-*%X$%%$O. .. X.",
"222,,,,;,,,,;;;;;;;-;-;#&#-#;%;#&&%&&#%##&%&*%#X##Ooo.o   X ",
"22222,,,<<,,;;;;;;;;;;;;#;#%-;%;#&&%@&@&%&&&%%#XXXoooo      ",
"222222,,22<,,;;;;;;;;#;;;#;;%-;;&@%&%#&@#&%&*##XO#o.oo o . .",
"2222222222,<;;;;;;;;;##;;;#-;--%@#&@%@@##%%&*%#%$X.. ooo..  ",
"22222,22,,,,,;;;;;;;;;;;;-;;;%##@@@&#&@&&#%%&&*%*X..ooo   ..",
"2,22222222<<;;;;;;;;;;;;;;#---XX###$&%%#%#%&*--**$o.ooo     ",
"2222,22,,22,,,,;;;;;;;;#;#-;-XXX#%#%@@%#X%%*;*--*$ooooo  .. ",
"2222222,,2,<,;;;;;;;;;;;;;;#X.XX###$$$@##%%;:;-%$$o.ooo     ",
"222222,2,,2,,,,;;;;;;;;;;;;-X.XX#$#%##$##$****-%$O...ooo..  ",
"2222,2,,,2,,,;;;;;;;;;;;;;;XXXXX$#%XXXX#$#%---%%%X##X..XXX..",
"22222,2,,,,,,;;;;;;;;;;;;#;#XXX-%%#%$XO#$%%--%%%%-;#XXX$%%..",
"22222,,,,<2<;,;;,;;;;;;;;;XXX-XX%#XX$XXXXX%--%-%;##XXXO%-%.X",
"22,,,,,,,,,<;,;;;;;;;#;;;;#;X-#X%%X$#XXX%#%-%--;;-XXX###%#XX"
};
