/* XPM */
static char *result[] = {
/* columns rows colors chars-per-pixel */
"60 60 245 2 ",
"   c #0C1616",
".  c #131C1C",
"X  c #16241C",
"o  c #1B1E23",
"O  c #162223",
"+  c #1A2525",
"@  c #1C2A25",
"#  c #1C2529",
"$  c #1E2A2B",
"%  c #172729",
"&  c #152F29",
"*  c #222D2D",
"=  c #222927",
"-  c #24322E",
";  c #29372B",
":  c #363B2C",
">  c #232E30",
",  c #263231",
"<  c #2A3534",
"1  c #2C3A35",
"2  c #2E3638",
"3  c #2E3A39",
"4  c #243C37",
"5  c #323B36",
"6  c #3D3B35",
"7  c #323D3B",
"8  c #393B38",
"9  c #443B2E",
"0  c #433D36",
"q  c #523F3A",
"w  c #35432D",
"e  c #3B432E",
"r  c #3C4A2C",
"t  c #3A4825",
"y  c #36532B",
"u  c #39552D",
"i  c #3B592D",
"p  c #37582D",
"a  c #2C4336",
"s  c #354433",
"d  c #3C4333",
"f  c #354C34",
"g  c #3C4C33",
"h  c #35423E",
"j  c #3B423E",
"k  c #3B4C3B",
"l  c #36483B",
"z  c #3C5432",
"x  c #3D5932",
"c  c #385438",
"v  c #2D4E2F",
"b  c #45492C",
"n  c #42522D",
"m  c #48552F",
"M  c #444C33",
"N  c #4A4D34",
"B  c #44433C",
"V  c #4C4C3B",
"C  c #484538",
"Z  c #534B3D",
"A  c #564737",
"S  c #425434",
"D  c #4C5434",
"F  c #445A34",
"G  c #45543B",
"H  c #4C523B",
"J  c #4C5B3B",
"K  c #485C38",
"L  c #53543D",
"P  c #545B3C",
"I  c #575638",
"U  c #57482E",
"Y  c #684C2E",
"T  c #764C28",
"R  c #78562C",
"E  c #654B37",
"W  c #744D39",
"Q  c #675437",
"!  c #7B533D",
"~  c #785934",
"^  c #6E542D",
"/  c #48613C",
"(  c #5B623C",
")  c #57613B",
"_  c #68663B",
"`  c #786839",
"'  c #343D40",
"]  c #364241",
"[  c #3B4542",
"{  c #3C4945",
"}  c #3E4C49",
"|  c #3D5242",
" . c #434442",
".. c #434A45",
"X. c #4C4B43",
"o. c #444D4A",
"O. c #4A4E4B",
"+. c #4D4443",
"@. c #534C43",
"#. c #5B4C43",
"$. c #524C4A",
"%. c #574A47",
"&. c #4B524D",
"*. c #475747",
"=. c #555542",
"-. c #5A5643",
";. c #5A5A42",
":. c #54534C",
">. c #565947",
",. c #4D5552",
"<. c #4E5953",
"1. c #525552",
"2. c #5A5452",
"3. c #545B55",
"4. c #5B5C55",
"5. c #555D5A",
"6. c #5B5D5A",
"7. c #505658",
"8. c #4B4F50",
"9. c #654C41",
"0. c #645544",
"q. c #6B5B44",
"w. c #675847",
"e. c #745442",
"r. c #775B47",
"t. c #665E53",
"y. c #7A5D53",
"u. c #5C6344",
"i. c #56614A",
"p. c #546353",
"a. c #5B6355",
"s. c #57615C",
"d. c #5B635D",
"f. c #5D6A5A",
"g. c #4F634C",
"h. c #686447",
"j. c #786445",
"k. c #62635D",
"l. c #656655",
"z. c #786854",
"x. c #7D7050",
"c. c #595F60",
"v. c #5C6561",
"b. c #5D6862",
"n. c #626462",
"m. c #636A64",
"M. c #686C65",
"N. c #6E7572",
"B. c #A7581C",
"V. c #B25E1B",
"C. c #BE631C",
"Z. c #824E24",
"A. c #89582B",
"S. c #965828",
"D. c #875839",
"F. c #965D3A",
"G. c #A45A25",
"H. c #86673A",
"J. c #9A6639",
"K. c #986D35",
"L. c #A9642B",
"P. c #B86628",
"I. c #A86938",
"U. c #B77538",
"Y. c #AF7336",
"T. c #C76818",
"R. c #D77518",
"E. c #D16E13",
"W. c #E97C17",
"Q. c #C46A26",
"!. c #D77A28",
"~. c #CB7832",
"^. c #E67B25",
"/. c #885C44",
"(. c #925E41",
"). c #886548",
"_. c #986646",
"`. c #876957",
"'. c #8A7459",
"]. c #977152",
"[. c #A56B47",
"{. c #B77643",
"}. c #AA7958",
"|. c #B77B53",
" X c #AE7249",
".X c #997B60",
"XX c #906F61",
"oX c #AA7E62",
"OX c #C57B4A",
"+X c #BA803F",
"@X c #E7861A",
"#X c #F48817",
"$X c #F79718",
"%X c #E89617",
"&X c #F5A71C",
"*X c #ECA916",
"=X c #D9873A",
"-X c #D88F32",
";X c #F69B28",
":X c #E88836",
">X c #F58E39",
",X c #E69838",
"<X c #F89639",
"1X c #ED8D29",
"2X c #FAA728",
"3X c #F9B82B",
"4X c #ECA736",
"5X c #FBA735",
"6X c #F9B934",
"7X c #EEB034",
"8X c #F7C52A",
"9X c #FEC938",
"0X c #FDD93A",
"qX c #F3D42C",
"wX c #FCE939",
"eX c #FEF43C",
"rX c #B78159",
"tX c #AD8351",
"yX c #BA8861",
"uX c #BF9361",
"iX c #9E8165",
"pX c #D48847",
"aX c #D9934A",
"sX c #C88758",
"dX c #D88B53",
"fX c #D7945A",
"gX c #C6884C",
"hX c #E69549",
"jX c #F69949",
"kX c #E29853",
"lX c #E8914B",
"zX c #FDA749",
"xX c #E9A94A",
"cX c #D29264",
"vX c #C68E63",
"bX c #DCA56D",
"nX c #EEA869",
"mX c #E19E61",
"MX c #FBC742",
"NX c #FFD745",
"BX c #FEEA45",
"VX c #FEF549",
"CX c #FFFA54",
"ZX c #FEE351",
"AX c #7D8583",
/* pixels */
"V V H H H =.=.=.L L L L L L L P L P P Q Q q.;.w.q.Q j.j.~ ~ ~ A.A.A.S.S.S.Z.Z.Z.T T T T Y E E U q U A 9 C 9 9 9 9 : 9 6 ",
"V H V V V H H H L =.=.L =.P -.P P 0.w.q.q.q.q.j.j.j.j.` ` H.H.A.J.L.Y.L.G.G.S.Z.Z.Z.T T T Y Y Y U q U N U 0 C 9 0 6 6 9 ",
"*.H S r M G =.=.L =.-.I -.-.-.;.;.0.0.q.r.q.q.j.j.r.H.D.H.S.S.S.L.P.Q.P.P.V.B.B.B.Z.S.Z.Z.T T ^ Y U U A A C C C b 0 B 6 ",
"G z r r g M N N L H Z L L L -.-.-.;.w.w.q.q.j.r.j.).H.D.H.K.L.L.P.Q.Q.T.T.C.V.B.B.B.B.S.Z.A.! ~ ^ Y Q A A A C C B B d 6 ",
"r v t t r r M M V V V V Z L =.;.;.0.q.h._ h.` ` ).H.H.K.I.Y.P.P.P.T.T.T.T.T.C.V.B.B.G.S.S.F.D.~ ^ Q Y A N C A C d d B 6 ",
"w t w r n M M N D V H H L L P =.;.;.Q _ _ _ ` ` H.H.K.K.Y.Y.P.!.!.R.E.E.E.T.T.T.C.P.L.G.F.S.A.! ~ ^ Q U U C C M B 6 6 6 ",
"y z z u S H G H H H H V H L J =.P P _ ( _ _ ` ` H.K.K.+XY.P.-X,X<X@XW.W.R.E.E.E.:XpXQ.P.G.F.A.A.R ^ Y U q b 9 b : b d 5 ",
"z S S u S S S G G N D D L H P P ;.) ) _ ` ` ` H.H.K.+X+XP.!.:X5X5X;X;X5X;XW.R.W.>XjX!.P.P.L.F.S.R R ^ U U U b 9 b : d : ",
"z z u u u z M S G J H P P ) >.u.u.( _ _ ` ` ` H.tXK.+X+X-X!.1X;X2X2X3X6X;X#XW.#X>XjX!.Q.P.L.J.S.A.R ^ Q I U N N b : d : ",
"z u u u z z z S J *.) i.i.u.u.i.u.( _ _ ` ` H.K.H.+X+X+X-X-X@X@X&X3X&X2X;X$X#XW.^.^.^.!.Q.L.G.S.A.A.~ Q Q I I N b 6 w : ",
"z y z z z z y z z K K J P P ) ( u._ _ _ ` tX].].tXuXaXxX=XR.@X%X8X3X*X&X&X&X$X#XW.^.^.lXpX~.{. XJ.A.R ~ Q I U H b t e : ",
"z u u x z y y y z z S z S K / ) u.( h.` x.` ].tXuXbXxXmX,X!.%X*X9XqX*X*X*X$X$X#XW.W.^.:X:XOXpXsXrX_.j.~ Q U N b e : w ; ",
"y y y y y y y z z S S n n F m ) ( ( _ x..XiX}.rXuXbXnXnXhX1X1X3XNX0XqX8X*X*X$X#XW.W.^.jXlXdXcXcXsX}.).'.h.I N N g e s : ",
"y y y y y u z x z F F F m J / ) ( ( u.x..XoXrXyXvXbXnXnXlX1X%X3X0XwXBXBX0X3X2X$XW.W.>XjXjXlXcXcXyX X]..Xz.I N b r w w w ",
"z y y y y u z F x z F F K K I ) ( ( h.x..XoXoXrXrXrXsXlX:X1X1X3X0XVXVXCXVXNX3X$X#X1X<XjXjXdXOXOX X[.XX'.z.I b M g w w : ",
"F i u u y y u i z u u F J J m ) ) ( ( x..XoX}.]._.J.U.OX:X<X5X9XwXVXCXCXVXNX6X;X;X<XjXjXOXU.I.F.J.(.).`.h.-.V N M g s w ",
"F i i y u i p p F z u S F I K ) ) ) ( _ `.).D._.}.rXOXOX:X<X5X9XqXeXCXCXVX0X3X&X;XzXzXjXOX~.I.[.F./.! Q 0.L N M g r w w ",
"i i i p i i x / / F F F / K J J ) u.u.( W e.).}.yXsXfXlX>X<X2X3X8XqXVXVXBX0X6X7X4XzXjXlXlXmXcX|.}.(.Y U I L H N g s s s ",
"i i p p x x x / F i K J D J >.>.>.h.h.u.0.r.)._.]. X{.OX=X,X5X6X8X0XeXeXqXqX8X6X5XzXjXkXOXOX[._.(.r.Q I I L N N d d e s ",
"i i p y i i x F m S ) i.>.i.l.k.M.M.l.w.0.r./.).[. XOXsXaX,X,X;X6X0XwXeXeX0X9X7X4XhXjXkXOX X[./.! W Y U I L D D M s b t ",
"i i y y y u x K S J f.l.a.a.i.>.l.k.l.w.w.e.r./._.}.cXfXpX-X,X4X6XNXNXBXCXZXNX7X,X-XlXdXOX|.[./.W Q Q I P P I P N d e e ",
"i i p y z z z c z k g.f.f.k.a.4.4.4.t.q.t.r.r././._.|.sXmXkX,X-X4XMX9XBXZXNX7X-X-X=XpXdXsXyX_.! ! r.q.h.Q I D I D r e w ",
"i i p y c y c G G k >.p.k.M.k.k.l.4.t.t.t.r.r.e.e.D._.|.fXmXkX,X4X4X7XqXxXxX,X-X=XaXsXsX|.(./.`.`.x.z.x.P D m m b t t t ",
"i i p y y y K p.p.p.p.d.d.m.k.k.k.t.w.2.w.0.9.0.e./.).K. XtXfXmXaXxXxXxX7XxXxXkXfXfXsX X(././.XX'.z.x.l.h.m U I m t t t ",
"y y y r y g *.f.b.v.<.<.v.v.d.6.4.%.@.@.@.A A 9.9.e.e./.(.[. XU.OXhXhXaXaXaXaXdXOX|.[././.e.`.z.z.M.z.l.u.J I ) m b t t ",
"i t u y f k *.p.5.v.c.v.c.5.6.2.X.C B +.Z @.#.#.0.9.e.e./.D.[.I.I.U.~.=X=XtX{.I.[.D.(./.e.y.r.r.l.y.l.l.h.) I K m b n t ",
"y n y r f k | <.c.c.c.5.7.7.5.X.j B 0 0 @.%.%.Z @.#.9.e.e.W D.F.F.[. X{.I.[.[.(.F./.e.W 9.9.w.t.t.t.t.l.l.u.D m m m n t ",
"i n i g k | } <.v.5.5.7.8.,.1...B  .+.B :.:.C B q +.#.E 9.W e.D.D.S.F.J.J.F.D.D.W E 9.9.9.9.#.2.t.t.t.k.i.L N m n t b b ",
"z g k k l l { <.v.5.5.7.8.O.8...B  .+. .O.+.0 0 0 +.q q q e.e.e.! W D.D.D././.`./.W q q q q +.%.2.4.2.a.i.*.M M M M r e ",
"f l k s 1 5 { &.5.c.c.7.1.,.O. .j ..O.0 0 0 0 8 0 +.q 0 q 9.y././.r._.].(.XXXXXXy.q q %.%.+.+.$.2.2.3.a.a.=.V H *.V V G ",
"s s 7 5 ; < k ,.d.d.6.5.7.:.O. . .O.5.8.O. . .0 0 +.+.q +.9.2.`.`.z.].XXXXXXXXy.9.9.9.%.$.2.2.2.4.4.2.a.i.*...*.*.=.O.*.",
"l 7 7 2 , < j ,.v.d.3.3.5.1.O.o. .8.c.c.6.8. . .0 $.%.+.+.%.2.9.w.w.z.z.y.y.9.y.2.%.2.%.2.2.2.2.6.4.4.a.4.&...O.&.O.&.| ",
"5 < < 2 , , 8 O.n.d.3.3.4.3.&.O. . .,.,.8...0 6 6 $.2.2.$.%.%.L Z I q.h.q.I Z #.#.2.2.$. .+.$.7.1.$.1.s.4.*...O.&.O.O.,.",
"1 - > 2 2 < 5 o.d.v.3.s.d.s.1.O.j 7 7 7 8 5 < 8 6 +.n.t.2.$.:.Z V Z -.w.w.Z Z C %.2.2.+.0 8  .+. . .O.5.3.&.....o.O.o.O.",
", 2 2 2 2 , 7 o.v.d.6.M.M.m.3.<.&.o.o.o.[  .[ 8 2  .n.n.t.6.$.B X.V :.>.:.V C @.:.4.4.O.' 8 ' +...O.,.p.p.*.G g G M r g ",
"< 2 2 7 2 2 2 o.5.v.s.v.b.f.d.d.s.3.s.3.o.8 [ 8 8  .c.n.n.n.d.2.:.X.@.:.@.X.:.4.k.6.4.$. .8  .8.&.3.3.3.p.:.S r S n n / ",
"2 2 7 ' 2 > 2 o.5.v.b.v.s.s.d.f.d.d.b.s.O.] 8 [ 8 ' 5.n.n.M.M.k.4.O.X.V X.:.4.k.6.6.2.1. .8 O.7.3.6.d.s.a.p.G S F F / g.",
"7 8 7 ' 2 > 2  .,.s.b.m.v.d.d.v.v.b.d.5.o.8 [ [ 8 8 c.n.c.n.n.n.k.2.:.>.:.3.d.4.6.6.5.O. .' O.4.5.s.d.b.b.a.G c J J / / ",
"' ' ' 2 < = 8 } &.o.&.5.d.d.v.v.b.b.v.,.o...[ ' ' 8 5.n.n.t.n.6.d.k.k.a.4.a.4.3.7.4.7.O...o.,.v.d.s.b.m.b.p.*.x J / / / ",
"' ' 2 < < < 8  .o.] 7 ] ,.s.d.v.d.d.v.3.o.} ] ] 7 8 7.m.v.c.v.6.k.k.M.k.1.:.3.3.3.1.,.o.o.o.1.v.v.d.b.m.b.f.g./ *.K c / ",
"7 2 2 < < 2 ' } [ ] < ; o.<.<.v.s.s.v.<.<.,.o.,.} ' 5.N.N.d.6.5.d.d.d.s.3.3.3.s.5.,.,.,.8.o.5.v.b.v.b.b.b.m.p.*.*.c c v ",
"2 < , * < 7 [ } 7 ] < < ,.5.<.v.b.v.v.v.v.s.v.b.7.{ v.AXN.d.5.d.k.s.4.f.m.m.b.b.v.d.5.5.<.,.<.v.s.s.v.v.m.m.p.c c y c v ",
"< > < 2 7 8 [ ] 7 8 2 = } v.5.&.o.o...} } } o.o.[ ' 5.m.v.5.<.&.*.,.&.&.3.<.O.o.o.o.o.{ 3 h } } } o.} &.<.} | *.y c f v ",
"< < < 2 7 ] 8 7 7 2 - = 3 o.o.{ [ [ j [ ] { ] ] ' 2 { o.{ ] ....j { { j k [ [ ] ] ] ] ] 3 ] { { ] l [ { | 4 | *.| c z v ",
"1 , < 5 7 7 7 7 2 , - * - 7 { ] ] ] ] ] { ] 3 ] ' < ] [ ] h [ { k j k j l [ [ [ } } ] 3 3 ] ] ] h l [ } { 1 k k c c f f ",
"; < 2 7 7 7 2 < < < < - $ < { ] [ ] [ ] ] ] ] ] 3 < 3 } } ] 1 1 1 5 1 1 1 3 3 3 7 ] 7 2 7 ] ] l h ] { } *.| k f k k f l ",
"- < 1 7 7 1 < < < 5 1 * + < ' ] ] } ] h ] h ' ] ' , 3 [ } a - @ - - - * , < , > 2 7 7 7 7 ' h h h h l | *.<.k g f s ; l ",
"< < 5 7 3 1 < 2 7 7 < $ O * 7 ' ] [ h h 3 h ] ' 4 4 ' ] { h - 4 a 1 1 1 7 7 < < 7 ] 7 7 7 7 j 7 h h a 4 a | { G l e ; l ",
"2 1 3 3 1 1 1 3 ' ' , $ % @ 3 ' ] [ h 3 h ] 3 ] 3 < ] ] { ] < 3 l 1 1 < 3 3 1 , 2 2 2 1 7 7 5 7 [ ..| & & v k | M d d d ",
"7 1 3 < < < 3 7 ] 3 > $ # O , ] ] ] h 3 h 7 3 h 1 < ] { } ] , 4 h 3 h 3 3 3 1 1 7 7 2 < 2 2 < 7 o.3.s.| | | l ; : ; ; = ",
"2 < < < , < ' ] 3 < > $ $ $ > 3 ' 3 3 3 a h h 3 1 , h { } 4 4 1 1 h h [ 7 3 < 3 5 < < < < < 2 8 h l } *.*.| w @ X = = = ",
"< , < , < 3 ] ] 2 2 > > + O # , ' ' h h 7 3 3 3 1 , 3 { } 4 , 1 1 h a ] 5 < - 1 1 < ; , , < 1 < , * ; | | f X X = = + @ ",
", , > > < ] ] ' 2 > > > $ % # $ < 2 7 7 7 3 7 3 1 < 7 { } 4 - 3 h [ 5 h h - < 1 < < * * < 5 2 * * 7 l l 4 X X X $ $ $ @ ",
", $ > , 3 ] ] 3 2 > > > $ # # # $ * , < 3 7 h 7 1 , 5 } } 1 1 h h h a h h - 5 7 1 ; - , < * + . + , 7 - X X @ & % & - - ",
"$ * , 3 ] ' 3 4 > > > $ $ $ $ # O + # * , < 3 3 1 < 3 { [ 1 4 l h a h h 7 < l h < = * = + + X .   . X X X & @ - > > > 4 ",
"* , < h ' ' < > > > > $ # # $ # # O O O O $ * , , , 1 h h ; 1 ] 1 1 1 1 1 < j h * @ + o X + # X . . + @ * * - - & 4 4 4 ",
"* < 7 ] ' < 4 , , > > $ $ $ $ $ $ # # O o O % $ > $ 2 3 a 4 < s 1 s 3 < - 1 7 < @ X # + $ $ +     . # * o > > > # > ] 4 ",
"< 3 ' ] 3 < , , , > $ $ > > > $ $ $ # # O O O # # % 2 3 h , - 1 a j a , - 7 1 - + + + + $ = $ .     o = * * # > > ' 4 & ",
"< ' 3 3 2 2 < , , > > $ $ > > > $ # o O O O O % + @ , 3 3 ; - - 1 1 1 < 1 3 - @ @ + @ = # = = +     . o # # O # & & & & ",
"< 3 2 1 2 4 < , > > > > > > > > # # # # # O # # # + * 1 h 3 a h h h 3 3 7 h , @ + + $ = * > , $     . o # # o # & & . O "
};
