/* XPM */
static char *d4739c93465244969218f4635d788790RWQn3o7UawXS5aS7[] = {
/* columns rows colors chars-per-pixel */
"60 60 237 2 ",
"   c #010202",
".  c #090804",
"X  c #1B0B0D",
"o  c #19050D",
"O  c #17140C",
"+  c #170A11",
"@  c #1B1515",
"#  c #0B0F12",
"$  c #250302",
"%  c #2C0301",
"&  c #250C04",
"*  c #2B0C03",
"=  c #270D0B",
"-  c #330302",
";  c #3D0204",
":  c #340A0B",
">  c #3D0A0A",
",  c #370906",
"<  c #2D1205",
"1  c #2C1B0A",
"2  c #281808",
"3  c #34180B",
"4  c #260D14",
"5  c #380E14",
"6  c #241A1B",
"7  c #2A1C1B",
"8  c #281715",
"9  c #341412",
"0  c #3B1312",
"q  c #341914",
"w  c #34141B",
"e  c #331D1B",
"r  c #3C1917",
"t  c #1A2C0E",
"y  c #16340C",
"u  c #1A340D",
"i  c #1C390D",
"p  c #183407",
"a  c #1D3611",
"s  c #1E3913",
"d  c #1F3E19",
"f  c #242C0E",
"g  c #28240C",
"h  c #36250E",
"j  c #21350E",
"k  c #243C0E",
"l  c #293C0F",
"z  c #262815",
"x  c #362719",
"c  c #233612",
"v  c #2A3515",
"b  c #243B14",
"n  c #293D16",
"m  c #23361B",
"M  c #2B361C",
"N  c #233C19",
"B  c #2A3E19",
"V  c #313C1B",
"C  c #343418",
"Z  c #1F1925",
"A  c #2C1925",
"S  c #271B24",
"D  c #3B1B24",
"F  c #1B2223",
"G  c #232223",
"H  c #2C2728",
"J  c #342322",
"K  c #3B2323",
"L  c #33232B",
"P  c #3D2A2D",
"I  c #382829",
"U  c #2D3C23",
"Y  c #293824",
"T  c #333525",
"R  c #333C23",
"E  c #38382B",
"W  c #3A2933",
"Q  c #323C31",
"!  c #3E343A",
"~  c #3B3C3B",
"^  c #383435",
"/  c #430204",
"(  c #420608",
")  c #47080A",
"_  c #560D0E",
"`  c #42130D",
"'  c #470E13",
"]  c #410F18",
"[  c #590B16",
"{  c #461714",
"}  c #571D19",
"|  c #670D17",
" . c #7C0B19",
".. c #750C17",
"X. c #68131C",
"o. c #77151C",
"O. c #46271A",
"+. c #561B26",
"@. c #441F26",
"#. c #611A24",
"$. c #77192B",
"%. c #422427",
"&. c #532629",
"*. c #452C35",
"=. c #5B2932",
"-. c #423333",
";. c #433D33",
":. c #43343C",
">. c #4A353B",
",. c #443B3B",
"<. c #4B3837",
"1. c #57353A",
"2. c #453A2B",
"3. c #6A2A35",
"4. c #6B363E",
"5. c #1D4315",
"6. c #1B410E",
"7. c #2B420E",
"8. c #27430D",
"9. c #264114",
"0. c #2B4215",
"q. c #26411A",
"w. c #2C421A",
"e. c #2E481A",
"r. c #284817",
"t. c #314415",
"y. c #334A15",
"u. c #32451A",
"i. c #33491B",
"p. c #394A1E",
"a. c #30450D",
"s. c #2D4421",
"d. c #2A4324",
"f. c #324522",
"g. c #344922",
"h. c #394B23",
"j. c #31462C",
"k. c #3B4C2B",
"l. c #3A4628",
"z. c #3C522C",
"x. c #3C4737",
"c. c #3F5030",
"v. c #44532D",
"b. c #42413D",
"n. c #474639",
"m. c #564339",
"M. c #4D533E",
"N. c #475537",
"B. c #352C41",
"V. c #3B3A43",
"C. c #433543",
"Z. c #453B41",
"A. c #4A3C45",
"S. c #4B3D49",
"D. c #493745",
"F. c #563C46",
"G. c #423F50",
"H. c #6A3645",
"J. c #3B4145",
"K. c #44424C",
"L. c #4A4849",
"P. c #53454C",
"I. c #524C4B",
"U. c #58454A",
"Y. c #4A5443",
"T. c #4A5845",
"R. c #53564C",
"E. c #58584B",
"W. c #4D4855",
"Q. c #514453",
"!. c #544A51",
"~. c #5A4C55",
"^. c #554C5A",
"/. c #5B4E5C",
"(. c #5A4250",
"). c #53535C",
"_. c #5D515A",
"`. c #585957",
"'. c #644B55",
"]. c #64555D",
"[. c #6E525E",
"{. c #624041",
"}. c #5A6357",
"|. c #5A664B",
" X c #66675B",
".X c #5C5564",
"XX c #595864",
"oX c #5C4F60",
"OX c #615462",
"+X c #645B65",
"@X c #6A5B64",
"#X c #685C6A",
"$X c #6A5D70",
"%X c #745D65",
"&X c #5C636C",
"*X c #5B6465",
"=X c #5F6074",
"-X c #62646C",
";X c #68646E",
":X c #666967",
">X c #70646D",
",X c #75686F",
"<X c #717A6B",
"1X c #6D6473",
"2X c #6A6A72",
"3X c #6A6C78",
"4X c #736A73",
"5X c #766976",
"6X c #677276",
"7X c #787976",
"8X c #627360",
"9X c #890C1E",
"0X c #86131C",
"qX c #91181F",
"wX c #82727C",
"eX c #79827B",
"rX c #75846F",
"tX c #7A7483",
"yX c #777985",
"uX c #7A6380",
"iX c #857A88",
"pX c #877790",
"aX c #7F8382",
"sX c #888789",
"dX c #89928C",
"fX c #8D8C91",
"gX c #878298",
"hX c #938898",
"jX c #8F9898",
"kX c #93999C",
"lX c #90928D",
"zX c #9C98A7",
"xX c #9A8EA4",
"cX c #A49AA9",
"vX c #A595B0",
"bX c #98A2A1",
"nX c #A6A6A9",
/* pixels */
"p.0.p.p.i.i.g.y.p.u.u.p.u.p.u.p.u.u.u.i.p.u.w.w.B B B B B B v n B v B n n m b b b b b B m d d N d d d s s N d d m N d b ",
"i.i.h.i.r.y.0.p.u.p.p.u.u.t.t.u.u.y.i.u.f.u.s.w.B B B B B B n B B B B B B n b b b m b s s a s m d d d s m N N m s s s s ",
"f.y.y.e.i.p.y.g.p.u.u.t.y.t.V t.0.e.u.u.u.w.w.B w.B B B B B B B V w.B w.B b c c m B N s s d d d m d m m d N d m s s s s ",
"f.p.y.y.i.q.e.e.u.u.t.p.u.u.u.u.t.u.u.u.t.V n B w.B B B B B B B B B w.B n m b b s s s s a d a d s d d d d N d s s d d Y ",
"i.g.p.y.h.T.N.y.u.t.u.u.p.u.u.u.u.u.u.t.n n B u.B B B B B B v w.v q.w.B n c c b s m n s d d s a s s s s d s s s d s m d ",
"y.g.e.a.N.fX8Xy.u.u.p.t.u.f.u.u.u.u.t.V 0.V V u.w.q.v q.B B B B B B B B B b n B q.w.d.d.q.B d d s d m d s d d d a d m d ",
"y.g.g.p. XhX:Xu.u.p.p.u.u.p.u.B V B t.0.t.V u.u.B v b v B B n n B B B B n b n B B d.s.w.9.d s d d d m d d s m d d a s s ",
"p.i.0.N.fXgX>Xl.u.u.y.u.u.V u.B t.t.u.V n u.0.u.q.n b v b b b m B B B B b B B B B w.s.s.q.d s m d d m d s d m d m s d s ",
"p.i.0.v.cXhX,XI.a.p.u.u.u.V i.y.u.t.n n 0.w.e.w.w.B n b b n b v n B B B B w.B B N B w.q.m d s N m s d d b d m b s s s s ",
"y.g.p.N.cXvX,XI.f.u.h.i.0.0.t.w.B 0.0.0.u.u.n B n B B B B n v b v w.q.B B B q.B B B w.9.b s s s m s m a d s m b d m s s ",
"y.i.e.v.cXvX5X/.n.E f.t.t.y.B u.n 0.w.w.w.w.B B B n n B n n b B B U w.w.B B B B b B B s b s N s N m m d d m s m b b c s ",
"p.i.e.N.nXvXiX'.A.P g C l.u.B B n n w.B B B B B B n b b b b v b B B w.B B B B v b B n b b q.q.B B n B N d 9.b d b n m s ",
"y.i.i.N.dXcXpX@XU.-.e K m.n.B 9.w.n n B n n B B n n B B B B B b b B B B B B v b B q.n b w.d.s.s.q.B 9.N N N b m d m m d ",
"e.y.i.i.|.nXhX@X!.<.%.D (.E.f.0.u.w.w.0.0.v n b B b B B B B B v B B B B B B B B B b B q.B s.s.f.s.w.b b b N B B d N d d ",
"g.e.p.i.v.lXxX>X!.>.%.w >.~.k.u.u.0.w.B n b b B 0.n b c n v B 0.B B n v B B B B B n n q.q.w.w.w.s.B b b b n B B N N 9.B ",
"g.y.i.i.y.}.cXwX].U.-.8 L I.R.k.u.y.n n n B B B B b b B B B B B B n n b B B B b B b B q.q.B m B B B N b q.B b b q.B w.s.",
"p.f.g.0.y. XnXpX].P.:.J 7 <.R.l.l.f.w.B B b n n B n n b B B n b B m c q.b 0.b 9.n n B b v B B w.s.w.B n b B b b n w.f.g.",
"i.i.g.g.e.N.lXxX@X!.A.x 9 P L.N.g.w.B B B n m 9.B b N b n N b n n B c b B B B m q.B N n B B s.f.w.w.B B B B v B B s.g.g.",
"g.i.i.g.g.h.<XzX,X!.-.q = J I.R.u.n B b B n n B b b n B n b b b i q.b c w.N q.B q.q.n B B f.f.f.s.w.q.n B n q.q.B w.u.f.",
"p.i.i.w.g.z.|.7XsXOX:.q * w A.K.B n b b v B b B B b b b b b m B c b b b N m s N n b b B w.w.w.q.B B n n c c b b m B B B ",
"y.i.g.i.i.z.c.v.7X4XA.r 3 r U.Y.B B b n n b b v B n n c s c n b b a b m j B n 9.m b q.w.B B B v w.B N b c b b n b n B B ",
"e.g.g.i.0.k.g.0.].sX].P 0 q 2.M.B B B b v n b B b b b k k a b m s m q.i u j k b b 0.B q.B B B B B B b m s b c b n b B q.",
"g.p.u.h.w.g.p.i.h.}.,XU.r 9 2.N.n 9.n B 0.b b B b b b b b c b b d 9.B c k.N j.x.B B b N B n B B n b b c c c c k b c m b ",
"j.h.y.h.u.e.y.u.k f.4X%X%.9 C v c m m b B B n t.m n m n b c k b c s u j.rX}.7XeXB n b n v n b b n b c b n b c s c j j B ",
"i.i.i.g.p.u.p.u.0.V E.7XF.] x 9.B w.n B u.u.s.B b i d b j b v m j d.}.eXbXlXsXsXT.c c B c 0.B m c s c b d s s b d s s s ",
"g.g.i.p.u.u.u.u.9.B g.R. X&.: C n w.q.u.f.f.w.B b B m B b n b b d.<XbXnXkXkXjXaX8Xf.b B b n b n c i s b b b b 0.9.B s i ",
"p.i.i.g.u.u.u.u.w.w.9.w.M.%.= 8 z B k.h.f.R f.U Y m n M q.q.9.q.}.sXjXbXhXfXdXeXN.N b w.B B a b k s c d N N q.w.w.q.N d ",
"i.p.p.i.u.V u.0.V u.i.b g X = . X z T T C E H T ~ R c c v v R T.6XiXsXsXsXsXeX XY s c n n m j i s s b N s d B w.q.q.q.q.",
"i.i.i.i.t.t.0.u.0.t.u.M O o = X X X 6 H L W H A W E 9.6.q.R L.&X5X:X}.7X7XR.l.j.m b n k 9.b b b b N b b N N q.s.q.q.9.9.",
"u.u.y.u.u.V t.V r.0.V R + o 4 0 4 o + 6 A A A W w x b c d.L.XX=X,X`.<.m.N.R c y i p j k k m n n b N 9.b N q.w.q.r.q.N b ",
"i.i.u.u.t.w.u.u.g.e.0.V O + = 0 9 8 X @ @ 4 A A ' ' ' r -.).1X$X`.4.o.o.O.m s j k c b j u Y U B 9.9.9.d N q.q.q.9.q.9.s ",
"i.i.p.u.u.u.V w.V u.7.0.n @ X 0 h x 7 @ @ 7 L x : ; ) +.S.&X&X).H.$.0XqX0XO.b y j m c c d.J.Y.B 9.9.b d 9.9.N b s s i s ",
"i.i.i.i.e.u.e.u.0.0.0.e.r.b z 1 0 C t.V 8 A L : > % 9 :..XXX1X.X=.| o.o...| O.a i 5.u E `.).J.Q b N j.z.j 9.d k s i s b ",
"i.i.i.i.e.e.0.0.0.0.0.0.w.w.v z & h t.V f @ x 3 $ - : *.^.&X6XuX'.+.| |  .0XX.} n M x.}.XXV.^ b.B u T.aXk.u d b b s i b ",
"i.i.i.i.e.y.0.u.e.0.0.9.r.e.w.v g j r.u.u.v V v 1 3 $ 5 Q.6X6XyX4XU.+.| ..9X9X .K <.:X-XV.@ @ W Q p T.zX}.k n k b s s b ",
"i.i.i.i.e.i.0.0.0.0.t.0.0.0.q.B n B B 9.u.7.t.n M C 1 K _.3XJ.W.tX2X1.| ..9X..X.>.].3X^.7 & = 7 ^ f.7XgX`.p i b 9.s i s ",
"i.i.i.i.e.0.0.0.9.0.0.t.0.8.9.r.9.u.B 0.7.l 9.q.0.b Y T.-XC.# S OXyX@X+...0XX.=.~.#X=X:.9 ` 0 H L I.fX4X!.j.N 8.s s s s ",
"i.i.i.i.e.0.0.0.0.7.n t.9.b 9.q.k t.0.0.9.t.n q.n l d.}.).S     S 3X5XH...o.3.'.#X2X).K ) ) r P *.^.tX_.K.).j.p s b s d ",
"i.i.i.u.e.0.0.0.0.0.0.0.9.b n n 8.l n 9.9.n n l k 0.N.`.J.V.F   z -XtX[.#.X.3.+X-X#X>.0 ; ) r J >.oX3XP.>.Q.x.b 9.s b b ",
"i.i.i.y.e.e.y.0.0.0.0.9.9.0.t.n q.l t.9.0.n l 7.s b E.XXB.K.H G :XiXtX1X&.} F._.XX!.@.> ; > ] D V.XXXXS.1.S.Q.l.s s s 9.",
"e.e.i.e.0.i.u.y.0.0.l l 9.0.0.l B 9.0.n l 9.9.k v s N.;XB.# # G A.:..X1XH.%.A.G.J.-.0 - - > w 8 ! ]./.D.^.S.,.].q.b s c ",
"e.e.e.e.e.0.0.0.y.0.0.0.0.0.9.9.0.0.0.0.9.0.9.l B 9.s :X4XF       @ W.+X<.%.-.L w : * < * $ 8 H S.+X!.D.^.P.! ! b c i c ",
"e.e.e.0.0.0.0.9.9.7.0.0.9.b n 0.w.n w.0.0.0.0.l k 8.i Y.7X`.G + F V.W.V.I P J 4 = 2 t m z 8 A C.oX#XA.:.Q.W.^ T s b a a ",
"e.e.0.0.e.y.e.0.0.n 0.0.7.l l 0.q.0.0.w.0.0.B b b k w.c Y.7X;XoX/.).~ L K 0 & = * h B b n 6 4 C.#X+X,.Z.W.Q.~ M a i a a ",
"i.0.e.0.y.u.0.0.t.9.0.0.0.9.0.0.0.0.w.q.B 0.9.l n l 9.k Y }.yX3XQ.^ G L 9 : : * < x n i B z z W.1X/.-.I..XW.Q c i i i u ",
"i.i.u.y.0.e.0.0.0.0.0.0.0.0.0.0.9.n 0.0.9.q.0.b b B k 0.v V.).K.^ H J 9 < 0 { ( * h v n r.B x.1X;XS.L >.^.L.U u u u u u ",
"i.i.i.e.0.i.y.9.0.0.0.0.0.0.0.B 0.7.9.0.0.0.0.n 0.n b i c x P W I K ] { { ` ( > / / > h h R `.5X].,.L W ,.~ c u y u a u ",
"i.i.i.i.u.u.w.w.y.y.i.0.0.w.0.0.t.n 0.y.9.n 9.l b k k 8.C = w O.[ ' _ _ ) / ; % * - ; / , 2.>XuXU.:.B.W P Y t y p u u u ",
"i.i.i.u.i.u.u.0.0.y.e.0.e.r.0.0.0.9.0.0.0.7.n 0.k n k k n 2 - [ | [ [ ) ; , - % % % - / ' {.,X+XZ.C.S.S.b.U y y u y u p ",
"i.i.i.i.i.y.i.i.i.u.u.u.y.9.9.0.0.0.0.7.0.l l 9.B 0.l b w.f < / > > , : % % - - - - - ( ) *.].OXK.C.S.,.E m y a y u u p ",
"i.i.i.i.i.i.e.i.i.u.u.w.0.0.9.9.0.0.y.0.l l l 9.0.0.l 9.w.n 1 * $ $ $ - - - - % - % - - - r >.U.:.:.,.E m u y y t u u u ",
"i.i.i.i.e.i.i.i.i.u.y.e.0.0.0.7.0.0.0.9.9.7.7.0.9.9.9.9.q.q.f 2 & $ % - - - < 8 3 2 2 3 1 g P U.>.W E m y u y y y y u u ",
"i.i.i.i.i.i.e.i.y.e.e.t.0.0.0.0.0.0.0.0.0.0.9.0.0.n r.9.9.b b j f g 2 1 2 g f s b s b B n B R n.P.! T m y a a t p p t u ",
"y.i.i.i.i.i.e.i.i.e.e.0.u.0.y.0.0.0.0.7.0.0.7.l 9.l l 9.i k c s s j b B n c c d i s b 9.9.q.v 2.U.P m a u s a y y u y y ",
"u.i.i.i.i.0.u.i.i.i.i.0.u.i.y.9.0.0.0.0.0.0.9.l 7.9.9.k i i i i s i c s i i c j k j n n 9.q.M T ;.M a y y a t y u y y y ",
"u.i.i.i.i.i.i.e.0.i.i.i.i.0.0.n 7.0.0.0.0.0.0.9.9.e.0.b i j i b i k b c c k m i c j q.q.5.5.5.v M c i y a a y i u u u y ",
"i.p.i.i.i.e.e.e.i.u.e.y.e.0.0.0.9.n 0.0.0.9.0.9.0.7.0.c s i i b c b i s s i k i c c b 9.9.d b m c b d i i i u i c s i u ",
"i.i.i.i.y.i.e.e.e.u.e.e.y.0.0.0.0.y.0.0.0.7.y.n 7.n b k c i c b b s s k c i a a c c s 9.9.b b d b 9.b c i s c m b i i u ",
"i.i.i.e.i.e.e.e.e.u.0.0.0.0.0.0.0.y.7.0.0.n 0.0.n 8.l k i b b c s b s i a a c i c c b 9.9.d b B 9.b b i a c s c b c c a ",
"i.i.i.i.0.e.e.e.u.u.e.y.t.0.0.9.n 0.0.0.7.l 9.0.9.9.k b b b s k b c a k k s i i c i d 9.9.b q.9.9.b c i i k i s b c a i "
};
