/* XPM */
static char *af26ba44bfd04f31f825a4df3b3bbdc0BsfdVVo32OvAw8Vt[] = {
/* columns rows colors chars-per-pixel */
"60 60 223 2 ",
"   c #020202",
".  c #0B0404",
"X  c #060903",
"o  c #090D05",
"O  c #08080A",
"+  c #0C0B09",
"@  c #150405",
"#  c #1C0403",
"$  c #150806",
"%  c #1E0905",
"&  c #1A070A",
"*  c #140B0B",
"=  c #1C0A0C",
"-  c #0D1306",
";  c #0F1807",
":  c #12140B",
">  c #1B140E",
",  c #131C0A",
"<  c #0D0D10",
"1  c #140E11",
"2  c #1C0E12",
"3  c #141213",
"4  c #1D1213",
"5  c #1B1813",
"6  c #15141A",
"7  c #1B1619",
"8  c #171A19",
"9  c #1C1B1B",
"0  c #230303",
"q  c #2C0404",
"w  c #230906",
"e  c #2C0A07",
"r  c #25060A",
"t  c #2A070A",
"y  c #240C0B",
"u  c #2B0C0B",
"i  c #330304",
"p  c #370606",
"a  c #330609",
"s  c #3C060B",
"d  c #330B0A",
"f  c #3C0B0C",
"g  c #24110E",
"h  c #2A100D",
"j  c #35110E",
"k  c #2A0E16",
"l  c #231414",
"z  c #2C1413",
"x  c #241A16",
"c  c #2C1A15",
"v  c #25151B",
"b  c #2A161C",
"n  c #251A1C",
"m  c #2B1C1C",
"M  c #341612",
"N  c #341717",
"B  c #331D1C",
"V  c #1A240D",
"C  c #1D2B0E",
"Z  c #17320C",
"A  c #1B340E",
"S  c #1F380F",
"D  c #1E2B12",
"F  c #1C3511",
"G  c #1F3A14",
"H  c #1F3C18",
"J  c #22330F",
"K  c #20380F",
"L  c #222E12",
"P  c #23261B",
"I  c #2A221D",
"U  c #34211D",
"Y  c #3C211D",
"T  c #223512",
"R  c #283414",
"E  c #233B14",
"W  c #293D16",
"Q  c #253D18",
"!  c #293E19",
"~  c #313C1D",
"^  c #1C1D20",
"/  c #261E22",
"(  c #2C1C22",
")  c #2B1924",
"_  c #341C25",
"`  c #391C25",
"'  c #252324",
"]  c #2B2224",
"[  c #2B2B26",
"{  c #2C242A",
"}  c #262829",
"|  c #2D2A2B",
" . c #332423",
".. c #332A23",
"X. c #32232A",
"o. c #3A262A",
"O. c #332C2D",
"+. c #2D3F22",
"@. c #33332D",
"#. c #373A29",
"$. c #2D2E32",
"%. c #3C2530",
"&. c #352D31",
"*. c #3B2D34",
"=. c #2E3336",
"-. c #353433",
";. c #3B3335",
":. c #3C3B35",
">. c #3D3539",
",. c #363939",
"<. c #3C3B3C",
"1. c #44060A",
"2. c #4D070F",
"3. c #430B0D",
"4. c #440A11",
"5. c #4E0B12",
"6. c #530B15",
"7. c #491114",
"8. c #43141D",
"9. c #531319",
"0. c #471621",
"q. c #441A24",
"w. c #4B1C25",
"e. c #521D23",
"r. c #462828",
"t. c #55232A",
"y. c #47312A",
"u. c #422D36",
"i. c #4D2D32",
"p. c #552B33",
"a. c #433233",
"s. c #4C3434",
"d. c #4D3737",
"f. c #43353A",
"g. c #433A3C",
"h. c #4C393A",
"j. c #553537",
"k. c #264016",
"l. c #2B4215",
"z. c #27401A",
"x. c #2C431B",
"c. c #2F4819",
"v. c #304217",
"b. c #31451A",
"n. c #33491B",
"m. c #2D4321",
"M. c #324522",
"N. c #354A23",
"B. c #394D26",
"V. c #354429",
"C. c #3A432C",
"Z. c #364929",
"A. c #3A4B2B",
"S. c #3E532C",
"D. c #3E4537",
"F. c #3D4C33",
"G. c #3F5337",
"H. c #40492E",
"J. c #434333",
"K. c #42453C",
"L. c #444D3D",
"P. c #484A38",
"I. c #415335",
"U. c #465B36",
"Y. c #4E633D",
"T. c #3A3C43",
"R. c #453C42",
"E. c #4C3943",
"W. c #493E43",
"Q. c #573B43",
"!. c #6D3B45",
"~. c #3C4045",
"^. c #444442",
"/. c #4B4245",
"(. c #4C4B47",
"). c #4C444A",
"_. c #47494C",
"`. c #4C4B4C",
"'. c #584547",
"]. c #52454C",
"[. c #534C4E",
"{. c #4B5443",
"}. c #4D5B42",
"|. c #4E534C",
" X c #55594B",
".X c #535C4C",
"XX c #4C4D53",
"oX c #544C52",
"OX c #564B55",
"+X c #594B52",
"@X c #4E5356",
"#X c #535254",
"$X c #575754",
"%X c #595E54",
"&X c #535559",
"*X c #5B545B",
"=X c #555A5A",
"-X c #5A5A5D",
";X c #6A484D",
":X c #66565A",
">X c #77575E",
",X c #53624B",
"<X c #556254",
"1X c #596354",
"2X c #5C625C",
"3X c #62645E",
"4X c #616F5B",
"5X c #5A5A61",
"6X c #595D63",
"7X c #675C63",
"8X c #5C6363",
"9X c #5F6866",
"0X c #646465",
"qX c #686B66",
"wX c #6B646C",
"eX c #65696B",
"rX c #716164",
"tX c #6A736A",
"yX c #6D6972",
"uX c #726E77",
"iX c #787778",
"pX c #804C55",
"aX c #7C7680",
/* pixels */
"n.n.n.n.n.n.n.n.n.n.n.n.n.n.n.n.n.n.n.n.M.b.v.! ! V.Z.F.Z.x.E Q R Q R ! ! E E Q E E Q Q H G Q Q H H H G G H G G H Q Q Q ",
"n.n.n.n.n.n.n.n.n.b.n.n.n.b.v.n.v.v.v.n.M.b.b.x.Z.,X2X2X<X}.M.! b.! z.z.! W R E E E Q G H G T Q H H G Q Q H Q Q H D G G ",
"n.n.n.n.n.n.n.n.n.n.n.n.b.v.v.~ v.v.n.n.v.v.~ I.%X0X0X8X6X<X{.m.! l.x.! ! Q R E T Q E G H H H H H H G G Q H H Q G H H H ",
"n.n.n.n.n.n.n.n.b.b.b.b.n.v.n.b.v.v.n.~ v.! N.%X0XeX8X8XeXeX<XZ.! ! ! ! ! T E Q G G G F G G H H H H H H G H H H G H Q T ",
"n.n.n.n.n.n.n.n.n.b.b.b.b.b.M.b.v.B.v.v.~ v.}.3X*X=X=X=X2X9X<XF.x.! ! ! Q E Q R T Q H H G H H G G G H H G H G F G H Q Q ",
"n.n.n.n.n.n.n.n.b.b.n.n.b.b.b.v.v.v.v.v.W n.,X3X=X#X#X%X%X2X.XF.z.! ! ! R E Q Q ! ! m.m.z.H G H H H H G H H H H H G G G ",
"n.n.n.n.n.n.n.n.n.b.n.b.M.b.v.x.v.v.v.v.v.n.Y.$X&XXXoX[. X'.P.M.! ! ! z.z.Q Q ! ! ! m.m.m.H G H G H H Q L G H H H G F G ",
"n.n.n.n.n.n.n.n.n.b.b.b.b.b.! W ~ W ~ W W B.4X:X@X).E.P.j.r.y.+.! ! ! W Q Q ! ! ! m.m.m.H H H H G H H Q H H H H G G H G ",
"n.n.n.n.n.b.n.n.n.b.n.b.v.R , L V R T , T A.tX2X`./.f.s.r.8.w.H.! ! ! ! ! x.! ! ! x.m.! E H H H Q H H H H H E Q G G G G ",
"n.n.n.n.n.b.v.b.b.n.b.n.W : o o D T -   + } 8X&X^.g.s.i.w.e.e.j.+.x.m.! ! ! ! ! Q z.Q Q E E G z.C.m.G H T H H H G T F G ",
"n.n.n.n.n.c.n.v.v.b.b.b.W o     X X X   3 } &XXXg.h.s.w.e.e.t.;XH.m.x.! ! m.Q Q Q ! Q Q E Q Q m..XG.Q Q H G Q E Q Q T G ",
"n.n.n.n.n.n.v.v.b.b.v.~ T X       O 8 9 [ -.oX).h.i.p.0.7.e.;X>X XA.x.! ! ! Q Q Q Q Q G Q Q x.I.=X.Xm.H Q G Q G G T G Q ",
"n.n.n.n.n.n.v.v.v.v.v.W -       6 ' ,.D.g.g.P.Q.p.p.t.q.8.j.>X:X/.{.Z.Q ! ! z.Q Q Q Q Q ! m.Z.<X|.^.m.! Q H Q Q H Q H H ",
"n.n.n.n.v.n.n.v.b.v.b.R X     * =.~._.XX).u.!.!.!.Q.w.0.r.:X7XE.^ ,.{.Z.! z.! Q ! Q Q ! m.M.G.|.,.-.F.m.Q Q Q Q Q H H Q ",
"n.n.n.n.n.v.n.n.b.b.b.W o   . 7 =.~._._.W.u.p.!.pXt.0.q.Q.wX&X^   6 D.{.N.! ! Q Q Q z.x.x.m..X`.&.| L.m.Q Q Q Q Q Q Q Q ",
"n.n.H.n.n.n.n.n.b.b.x.R o     3 } T.^.`.f.) k q.!.e.0.p.rX9X=.O     ^ _..XM.! Q ! Q ! ! z.Z.(.R.[ &.-.F.+.R E Q Q Q ! m.",
"N.N.N.n.n.B.S.S.N.b.! T o X   $ 9 -._.).R.) ) k q.q.` Q.rX#X9     O < $.%XL.z.z.Q W Q Q b.{.).%.O.g.-.:.M.Q Q R Q x.M.N.",
"n.n.b.n.N.S.U.Y.S.M.R , o > . @ * [ R.`.E.T.) ) ) ` %.!.>XOX~.6   < T.$.|.<XZ.z.Q W W ! V.(.f.( *.).;.&.D.x.z.! ! x.M.N.",
"n.n.n.M.N.I.Y.Y.S.x.T T R m.- . . x ;.oX*XW.o.X.` ` i.:X*X:XiX&X6 $.yXT.=.2X,XZ.! Q ! M. XW.X.X.>.[.<...-.Z.! Q ! ! b.b.",
"N.n.n.b.N.S.U.U.I.! , D ! C.* . @ 4 O./.OXXXE.R.%.` E.;X+Xf.&XXX6 { _.' ' -XqX}.M.x.x.I.$XR.{ ) >.].>.;.-.D.M.Q Q ! z.z.",
"n.n.n.N.M.B.I.B.b.T - o : 5 . . $ g  .g.oXoXoXQ.E._ E.:X'.) 6 3 O O < < <.=X-X8X1XI.A. X].O.X.&.;.g.g.<.O.-.L.M.! Q ! ! ",
"n.n.n.b.b.N.n.b.T -     . @ @ @ y g N *.].*XOX+XE._ q.E.+X].6         ^ oXOX].7X:XD.K.+X*.( { <.g.g./.>.] } ,.F.! Q Q Q ",
"n.N.N.n.b.b.W L - X     . @ 0 t j u h o./.+XoXoXE.X.) T.OX5XT.6 O   3 T.oXR.E.Q.).&.*.u.X.) ] { h.).).;.] ' $.,.m.R T ! ",
"N.N.n.n.b.~ L V X     . @ # t a f d e N f.].].].E.%.) ) R.OX6XXX$.' ).#Xf.>.*.o. .o._ X.X.&.( / ;.[./.[ | @.} @.m.E T ! ",
"N.n.n.n.n.x.L -       . # 0 q s s i a k _ O.>.R.E.W.X./ $.T.XX6XeX0X0X`.X.( b l k ) _ ( X.;.| 7 ] R.;./ &.,.| L.m.G G E ",
"B.B.n.n.n.R -       . # r r t q a s a r k ) ) ) T.T.f.X./ =.T.XXeXtX#X-.v l * & r k b b X.>.*.( ] ;.O.O.,.>.-.A.c.H G G ",
"n.N.n.n.! ;       * 2 y r t t a i i a y _ ) ) 1 2 v _ X.{ -.T.T.#X0X^.:.K.] $ & & ) ) v ) &.W.&.] X.&.g.^.<.D.V.x.z.H H ",
"n.n.n.n.R X     * l l l b z j t q q 0 = ( 2 * & & & & l ( | -.-.^.D.' L.F.#.g = l b b l n X.;.O.O.;.&.| O.,.F.m.z.c.k.k.",
"n.n.b.! ,     . 7 m  .m m B c u 0 0 # & = * & & y # # % = l ..@.#.[ [ A.V.! n l b ( b 2 2 n { o.f.].;./ [ L.Z.z.z.k.z.k.",
"n.n.b.W V o   * 4 n  .( m b l y # # * . @ @ = y y w q w 0 % > l I [ K.A.x.x.+.' x n 2 4 ) n ( *.W.].&.| <.F.M.z.c.k.H H ",
"n.n.x.V o     1 7 n m ( b x l = % = y & @ # # & r d d d j u e g I I g.Z.x.R T T T #.5 2 ) l v o.f.>.} &.{.M.x.z.k.H k.H ",
"n.n.n.T X     2 n n n n m x g > y z N % @ @ @ # t t i d f f M Y c x U M.z.E T G Q ! I 4 l 2 v  .&.O.} D.Z.z.k.H G G S G ",
"n.n.n.~ o     4 n ] l 4 7 l > w h h g % # @ # q e d i q q i d e e e B ~ E F E S T R L 5 1 * m ( ] | -.L.m.G k.G S S S G ",
"n.n.n.W o   . 4 n n v l v b g g g w e % # # # 0 q d f d i i i i p f j W E T T E Q Q G T n m B ] ' -.D.+.Q G G S G G S k.",
"n.n.n.v.o     4 l l 4 x x x l N M u e w 0 # q q i p 3.3.3.s 4.5.7.f M ~ T T E E E E F R C.;.] n } -.M.E G E E E k.S G G ",
"n.n.n.W o   . 4 4 4 l x z c U Y Y z u e # 0 0 q i p 1.7.5.5.5.9.7.3.M y.! T S E F F F F ! #.O.n [ F.x.G G K G E G G G S ",
"n.n.n.T X   . 4 > 4 l > = c o.y.y.z h h 0 # 0 q q i p 2.6.6.6.2.3.3.a z #.Q T F S J E E T #.g...C.m.G G G G E G k.S S G ",
"n.n.b.J -   + n x l = l x U y.s.r.z y U y 0 0 q q i i 1.2.6.6.2.3.3.t w ..R E F E E Q R ! J.@.[ ! G F G G G E E G G G S ",
"n.n.n.v.T - + ] l l l x h.#.s.s.s.z = w 0 0 0 0 q q i i 1.2.6.5.4.f q y C.! R W W W l.W R V.P C.x.G S S K k.E E k.G G k.",
"n.v.v.b.l.C 5 ..I c c m U U U y.j.B % # # % 0 0 0 q q i i 1.1.4.f a 0 = F.! Q l.W ! Q Q G ! V.m.l.k.G E K G E G G G G k.",
"W , J Q W T 5 x I I m m c c c Y r.B w @ @ # 0 % w e e e e p d d d e w > H.x.W W x.x.W T J E x.l.c.Q E E F E E E E E E E ",
"V o X X X - 5 ..n I I m B c x g z j y % # @ C C J J J J J J R R L J R T ! W Q Q x.! W E E Q x.c.z.E G K E K E E G G S K ",
"o         . 4 @.] ( n O.*...g h z z h u @ X o A K W K W W W l.K W W W Q W R Q W W ! Q E Q ! z.x.Q S S S J S E G S S S S ",
"            o : ; : : : x m g c B N h g @     - J l.l.K K W W K W W W Q Q k.E W ! W E E Q z.! Q E S S S S S S S S S S J ",
"  X X X X - C , C J J A , R ..z z c N l $   X V K l.W K K W K l.W W E W K W W W W W E E W z.Q Q E S S S G S S A A S A A ",
", T R E J E W E l.c.l.l.K x.;. .B c l m >   X T l.W K W l.K W K K E E K W K E E S E W E W l.E E E K F E S S A A A A S A ",
"l.n.n.c.c.l.c.l.l.l.l.l.l.l.g.a...m l m 4   X J l.W l.K l.K K K E S K W W K K W E E W W W Q E K K E E G G A A A A Z A A ",
"n.n.n.c.c.c.c.c.c.v.c.c.l.~ :.f.f.o.m  .I   X J K l.K k.K k.l.K W W W W W K E K E E W W Q E K K S S G G A S A A Z A A A ",
"n.n.n.n.n.n.c.c.c.c.c.c.c.x.g.g.f.;. .] m   X C W W K K k.l.k.l.K W W W K E K W E W W W E E K S S S F F F Z Z Z Z Z Z Z ",
"n.n.n.n.n.n.n.c.n.n.l.v.x.v.^.R./.f.O.| 9 .   , K K l.l.k.k.l.l.W K E W E K W J K W W W Q S K S E S F S F F F F A Z Z A ",
"n.n.n.n.n.n.n.n.n.n.v.c.l.b.`.).W.R.>.O.7 X o C l.k.K k.l.l.k.K K K W E E J K K K E E W Q E K E E S S Z F Z F F S A A Z ",
"n.n.n.n.n.c.n.n.n.v.c.c.c.b.#X*XoX].W.f.9 o V l.l.l.l.l.k.K K K K J K E W W K E W K E W W W Q E E F A S F F F Z Z Z A A ",
"n.c.n.n.n.n.n.n.n.n.c.c.v.B.3XrXyX*XOX).{ + - T l.k.K k.k.k.S S K K S J E E E K E K E Q Q k.k.Q R T F A F F Z Z Z Z Z Z ",
"n.n.n.n.n.n.n.c.c.n.b.v.c.B.4X3X7X7X7X*X,.D ; J k.k.k.l.k.S S S K E K E K K E K K E Q k.l.k.k.k.z.T F F F F F Z Z A A Z ",
"n.n.n.n.n.n.n.c.c.n.n.v.v.c.B.I.0XwXwXuX-XP J W l.l.l.K S A S S K K K E E J J K K E Q l.k.k.k.E E F F F F F F Z Z Z Z Z ",
"n.n.n.n.n.n.c.n.c.c.n.v.c.c.c.H.iXaXuXuX0XM.l.l.l.l.l.E S S S S J E K E K E K K K G R Q W Q k.E E G F Z F F F F A S Z Z ",
"n.n.n.n.n.n.c.c.c.c.c.c.c.l.l.n.tXiX0X0X3XB.l.l.l.l.l.K S S S S K E K G K S E E S K E Q k.Q E E E E S S S S A S S S Z S ",
"n.n.n.n.n.c.c.c.c.c.n.c.c.l.l.l.B.A.Z.Z.n.l.l.l.l.K l.K S S S k.E E E K F S S S T E E k.k.E E E E E W K S S S E E G S A ",
"n.n.n.n.n.n.c.c.c.c.c.c.l.c.l.l.l.l.l.l.l.l.l.l.l.l.K K K k.K S E E S S T S S S S S E k.k.Q k.E l.K K K S S G E E E S S ",
"n.n.c.n.c.c.c.n.c.c.c.v.l.c.l.l.l.l.l.l.l.W l.l.l.l.K l.K k.K S E E K K S S S S E K E k.E k.k.l.l.k.K S S K K K E F S S "
};
