/* XPM */
static char *result[] = {
/* columns rows colors chars-per-pixel */
"60 60 242 2 ",
"   c #010201",
".  c #090906",
"X  c #0B0E0B",
"o  c #05090A",
"O  c #16140B",
"+  c #050918",
"@  c #0C1615",
"#  c #0D1817",
"$  c #0F1B1A",
"%  c #0E121B",
"&  c #131B16",
"*  c #1B1E16",
"=  c #101D1C",
"-  c #161617",
";  c #221B13",
":  c #1E2117",
">  c #12201F",
",  c #1B2118",
"<  c #242417",
"1  c #232519",
"2  c #2D2A19",
"3  c #2B2718",
"4  c #342D19",
"5  c #3A2E1A",
"6  c #332817",
"7  c #3D321A",
"8  c #37301A",
"9  c #030C24",
"0  c #030D2B",
"q  c #040925",
"w  c #07122C",
"e  c #161926",
"r  c #020D34",
"t  c #030A38",
"y  c #071539",
"u  c #131A35",
"i  c #1C2234",
"p  c #28272A",
"a  c #322B26",
"s  c #3C3526",
"d  c #262934",
"f  c #373833",
"g  c #2A3639",
"h  c #43351B",
"j  c #47381B",
"k  c #4C3B1C",
"l  c #513E1C",
"z  c #433622",
"x  c #453A23",
"c  c #493C23",
"v  c #503E20",
"b  c #3A443B",
"n  c #48452A",
"m  c #444636",
"M  c #595837",
"N  c #504022",
"B  c #64643C",
"V  c #051343",
"C  c #05154B",
"Z  c #061B4C",
"A  c #091A49",
"S  c #101E43",
"D  c #071958",
"F  c #00074D",
"G  c #0A225C",
"H  c #0A2558",
"J  c #122A50",
"K  c #263849",
"L  c #081C69",
"P  c #05187A",
"I  c #0A2A6D",
"U  c #092568",
"Y  c #123563",
"T  c #0B2977",
"R  c #103974",
"E  c #0E3571",
"W  c #364947",
"Q  c #2E4D58",
"!  c #164669",
"~  c #175479",
"^  c #27576D",
"/  c #1D6376",
"(  c #296572",
")  c #1D4158",
"_  c #45554E",
"`  c #686842",
"'  c #78784D",
"]  c #536B6A",
"[  c #868657",
"{  c #95955B",
"}  c #80804D",
"|  c #9B9B63",
" . c #A6A567",
".. c #B8B879",
"X. c #B1B170",
"o. c #C6C67A",
"O. c #041D8C",
"+. c #0B2C84",
"@. c #0B2B8B",
"#. c #0D3388",
"$. c #092B97",
"%. c #0D3899",
"&. c #103B99",
"*. c #123F87",
"=. c #082BA8",
"-. c #0E3BAC",
";. c #0C36A7",
":. c #113CA8",
">. c #0B39B8",
",. c #113EB4",
"<. c #062BB3",
"1. c #17549A",
"2. c #144B8F",
"3. c #19669B",
"4. c #19638A",
"5. c #246789",
"6. c #2A789C",
"7. c #0E42A9",
"8. c #1244AD",
"9. c #1448A9",
"0. c #1758A8",
"q. c #0D46B8",
"w. c #1344B3",
"e. c #1349B9",
"r. c #1857B9",
"t. c #0C5ABF",
"y. c #186AAB",
"u. c #1B75A9",
"i. c #1A68B6",
"p. c #1B75B6",
"a. c #2677BA",
"s. c #2870AC",
"d. c #2A548A",
"f. c #0C39C4",
"g. c #103FCC",
"h. c #0B46C8",
"j. c #1244C3",
"k. c #144BC8",
"l. c #0A58C9",
"z. c #1454C4",
"x. c #1553CC",
"c. c #1859C7",
"v. c #1759D7",
"b. c #0D4CD6",
"n. c #215EC9",
"m. c #1B66C9",
"M. c #0C66D5",
"N. c #1966D8",
"B. c #1A74D8",
"V. c #1271D0",
"C. c #226BC8",
"Z. c #2877C9",
"A. c #216AD9",
"S. c #2579D8",
"D. c #317BCF",
"F. c #185CE5",
"G. c #1C69E7",
"H. c #1C75E5",
"J. c #1D7BF4",
"K. c #0D6CE2",
"L. c #247AE8",
"P. c #227BF3",
"I. c #206CE1",
"U. c #2884AB",
"Y. c #288AB8",
"T. c #3191B3",
"R. c #36A7B4",
"E. c #1F87BF",
"W. c #508A90",
"Q. c #5190B3",
"!. c #6EACB5",
"~. c #619C9E",
"^. c #1A90D2",
"/. c #2C8DD1",
"(. c #33AAD3",
"). c #1986E7",
"_. c #1C94EF",
"`. c #2985E8",
"'. c #338BE6",
"]. c #2A96E7",
"[. c #3496E5",
"{. c #2888F5",
"}. c #2A97F6",
"|. c #359CF7",
" X c #39A7EC",
".X c #3AB2EE",
"XX c #34A8F8",
"oX c #37B8F8",
"OX c #2DA7F6",
"+X c #17A8D4",
"@X c #4AB7CE",
"#X c #6BAFCD",
"$X c #449CED",
"%X c #45A9EC",
"&X c #46B5EC",
"*X c #47BBF4",
"=X c #56BAF2",
"-X c #4EABEF",
";X c #6AB9ED",
":X c #4B8BD0",
">X c #37C6FD",
",X c #3AD2FD",
"<X c #48C7EB",
"1X c #48C8F6",
"2X c #56C6F4",
"3X c #4BD4F9",
"4X c #55D7F8",
"5X c #68CAF4",
"6X c #68DAF9",
"7X c #76D8F9",
"8X c #73CBF2",
"9X c #5AE3FC",
"0X c #65E8FC",
"qX c #76E5FB",
"wX c #6AF2FE",
"eX c #75F4FE",
"rX c #8BACAF",
"tX c #8B9393",
"yX c #C5C584",
"uX c #D7D788",
"iX c #D9D991",
"pX c #E8E795",
"aX c #F8F79A",
"sX c #E5E58B",
"dX c #FFFFA1",
"fX c #95D9F7",
"gX c #8CDBF7",
"hX c #89E8FB",
"jX c #99E9FB",
"kX c #89F6FE",
"lX c #98F8FE",
"zX c #A6E9FB",
"xX c #B5EBFB",
"cX c #A7F8FE",
"vX c #B7F8FE",
"bX c #A5DDF6",
"nX c #CAFCFE",
"mX c #C6F9FE",
"MX c #D6FAFD",
"NX c #D5E9FA",
"BX c #E2F8FD",
"VX c #F9FEFE",
/* pixels */
"$ $ > $ $ $ $ $ = = $ $ = $ > $ $ > $ $ $ $ $ $ $ $ $ $ $ $ $ $ $ $ $ $ $ # $ # $ $ $ $ $ $ $ $ $ $ $ $ $ $ $ $ $ $ $ $ ",
"= $ $ $ $ > $ > $ = = = $ $ $ $ $ $ $ $ $ # $ $ $ $ $ # # # $ # # # $ $ $ $ $ $ $ $ $ $ $ $ = = = = > $ $ > $ $ = $ = = ",
"$ > $ $ = $ $ $ = $ e $ > $ > $ $ $ $ $ # # # # # # # # # # # # # # @ @ @ $ # $ $ $ $ $ $ $ > $ = $ = $ $ $ > $ = $ e $ ",
"$ $ $ > = = = = $ $ = $ $ $ $ $ $ $ $ $ # # # @ # @ @ @ @ @ @ @ @ @ @ @ @ # # # # $ $ $ $ $ $ $ = $ $ $ $ > $ $ $ = $ $ ",
"= = = $ $ $ = = = = = $ $ $ # # # # @ @ @ @ @ @ @ @ # @ @ @ @ @ @ @ @ @ @ @ @ @ @ # # $ $ # $ $ = = $ = > $ > $ = $ = $ ",
"= $ = = = = = $ $ $ $ $ $ $ # # # # @ @ @ @ @ @ @ @ @ # @ # @ @ @ @ @ @ @ @ @ @ @ @ @ @ # # # $ $ $ $ = $ $ $ $ = = = = ",
"$ = $ = $ = = = $ & & = # # @ @ @ @ @ @ @ @ @ # # = , , 1 1 , , , , , # @ @ @ @ @ @ @ @ @ $ # # $ $ = $ = = > $ = $ = = ",
"$ = = = = = $ $ $ $ $ # # # @ @ @ @ @ # # $ , , < 2 8 7 j k k j 7 8 2 < , , = $ # @ @ @ @ @ # # $ $ $ $ $ = $ = = = $ = ",
"= = = $ = = $ $ = # # # @ @ @ @ @ # @ * 3 5 k c j l l l l l l v l k k k k j 7 3 , # # @ @ @ @ @ # # # $ $ $ $ = $ = $ = ",
"= $ = = $ $ $ $ # # @ % @ @ @ @ # : 4 h j k v n b b K g p p d d p p a s j l k j 7 8 : # @ @ @ @ @ # # # & $ = = = = = = ",
"> $ = $ & $ $ & @ @ @ @ @ @ & : 2 7 k v c m W W Q ! ~ Y D A ! Y y u u i d f s z k k h 2 , @ @ @ @ @ # # # = # = $ $ $ = ",
"$ $ > $ $ $ $ # # @ @ @ @ & < 7 l N n b Q ^ / 4.4.1.3.2.I G 6.5.Y V V C Z S S g s j k l 7 < & @ @ @ @ # # # = $ = $ & = ",
"$ $ = $ $ $ @ @ # @ @ # * 4 j l n W Q ^ 5.6.U.U.s.y.i.p.*.L 6.Q.d.D D U G H H H S i 4 j k j 5 * # @ @ @ @ # # = $ = = $ ",
"$ > $ $ & # @ @ @ @ # < 8 k c m Q ^ 5.6.T.T.R.(././.C.S.9.@.s.Y.y.U L U U I I U Z y e 1 5 k k 5 : @ @ @ @ # # # $ $ = = ",
"$ $ $ $ # @ @ @ @ & < 7 k x f Y d.3.U.T.(.@X@X&X<X(.Z.B.z.2.0.a.p.+.T +.T T E I H V y 9 O 6 z c 7 1 # @ @ @ @ & $ $ & $ ",
"$ $ $ $ $ @ @ @ # * 7 k x p S I 0.U./.(.(.<X<X<X3X<X/.A.x.e.9.a.Z.&.$.#.#.#.#.#.U H V 0 + % p z k 7 : # @ @ @ @ $ $ $ $ ",
"$ $ $ # @ @ @ @ : 7 k z p J C U 0./.(.&X<X<X4X4X4X4X*XB.r.t.&.r.C.9.&.%.%.%.%.*.T G A y q % w d z k 8 : @ @ @ @ # $ $ $ ",
"$ $ $ # @ @ @ * 4 k j p S U D U 7.^..X<X1X4X4X4X9X9X4X/.m.z.8.r.C.C.w.8.w.8.8.:.#.U H V q q 0 u d j k 4 * @ @ @ # $ $ $ ",
"$ $ # @ @ @ & 4 j v a u A U E T %.B..X1X3X4X9X4X9X9XwX&XB.l.w.r.C.C.e.w.k.c.x.k.%.I H Z t r q t u 2 k k 2 # @ @ # # $ $ ",
"$ $ @ @ @ # : j l s u y Z U T T +.i.}.1X1X4X0X0X9XwXwX3X`.q.7.8.r.C.c.e.x.v.G.I.z.#.G H Y J w t 0 e 7 k j : @ @ @ # $ & ",
"$ $ @ @ @ * 4 k z p y C D I +.+.+.7.B.oX1X4X4XwXwXeXeX9X Xl.w.8.e.r.n.Z.'.A.G.{.H.e.+.*.Q.W.K V r w 1 h k 8 * @ % @ $ $ ",
"$ @ @ @ @ 1 j k a u H U T T +.#.@.%.m.OXoX*X3XwXeXeXeXeX<X).l.q.8.8.9.D.%XL.G.{.|.N.-.;.#X#Xd.D F V y a v j 1 # @ @ @ $ ",
"$ # @ @ - 6 k h ; y E 1.0.+.@.%.%.-.c.`.OXOX<XwXkXkXlXlX0XOXM.q.8.,.8.C.%XL.J.{.|.L.e.$.:X;Xs.L F C V p z k 4 * @ @ @ $ ",
"# @ @ # 3 h k a % t R a.D.&.$.;.h.q.e.V.].OX.XqXkXlXlXvXhX*XV.q.8.e.j.v.`.{.}.}.XX`.w.P n.$Xa.D t F t e a k 7 < @ @ @ $ ",
"# @ @ # 5 l j p 9 y G y.S.r.-.>.v.w.:.q.)._. X7XcXvXvXvXcX6X`.l.e.c.x.G.P.}.OX>X>X[.e.P 9.A.C.U q q q q ; j l 5 & @ @ # ",
"# @ @ & 7 l 5 % 9 y C %.c.v.k.b.x.;.$.-.B.)._.2XzXnXnXnXvXkX XV.q.j.v.P.OXOXoX>XoX{.x.-.:.c.A.R F t q + % h l 5 & @ @ @ ",
"$ @ # * h k 6 % 0 y C T q.F.F.v.j.,.w.q.z.M.). XjXnXnXMXnXxX2XB.h.c.`.XXoXoX>X,XOXL.F.v.e.c.I.9.I Z A t w a k h , # @ # ",
"@ @ # 1 h h : % 0 V Z I :.v.G.F.g.v.C.c.-.l.M.).8XvXMXMXMXmX7X X`.|.=X2X3X,X,XXXN.x.F.P.G.A.A.v.8.T T G S p z h 1 # @ @ ",
"@ @ & 2 j h - q 0 y H U %.N.{.J.b.v.D.D.r.n.v.M.$XhXmXmXxXjXjX7X5X7X5X4X3X,X XA.$.;.r.{.].).G.v.k.9.I Z S S z k 2 * @ # ",
"# @ & 8 l 5 % q w y V L ;.J.}.}.G.j.n.'.L.I.v.N.[.5XjXzXzXzXxXxXjXqX0X4X3X[.m.,.$.$.e.L.OX_.H.F.x.e.D 0 + % z l 8 & @ @ ",
"# @ * h l 5 % + w r C L 8.L.}.}.J.F.F.'.|.`.S.'.&X5XlXcXvXvXnXvXlX6X4X1X].e.<.<.;.,.z.`.}._.H.v.x.e.I y + X 6 l h * @ # ",
"# @ * k l a + + 9 r D +.,.v.J.{.J.{.|.XX|.|.%X=X6XeXcXvXmXvXvXlXeX3XoXH.q.=.<.j.;.,.v.'.}.].H.x.e.8.#.T Z w a l j - @ # ",
"# @ , j l 6 + o q C T T @.-.v.P.}.>X,X>XXX|.-X2XqXhXlXcXcXkX7X2X<XOXN.h.>.f.x.x.=.w.N.{.OX}.L.x.,.:.L G U J f v h ; % # ",
"# @ * 7 l 6 % q V L D D D @.;.v.{.XXoXOX|.|.*X2X4X6X6XqX6X2X<X2X2X XM.g.b.A.v.,.>.c.L.J.|. XS.x.g.:.S q y S z k h - # # ",
"# @ * 4 k h % y C C t y Z L $.j.G.L.L.A.L.L.'.[.[.[.[..X*X5X8XgXhX2X'.B.L.I.x.q.c.S.P.K.XX%XD.,.g.g.L q o u z k 5 & @ # ",
"# @ & 2 j h e y w + q V D I 9.v.G.g.=.=.j.x.v.c.t.h.h.K.&XjXmXBXnXjX5X%X'.M.x.V.[.'.L.G.].[.D.-.,.k.@.C q - z h 2 & % # ",
"$ @ - < h j p + o 9 E 2.#.@.g.I.P.k.;.=.f.b.h.>.>.h.b.B.&XjXMXMXNXvXgX.XK.K.'.%X$X`.H.`.L.D.m.8.,.k.:.L y p j j < & # # ",
"$ @ & * h c a % o 9 2.a.a.@.;.n.P.I.k.f.j.j.f.j.k.N.S.[.=XhXvXMXnXvX0XoX X=X5X;X$X'.`.L.r.9.8.:.w.r.:.I y a k h * # # $ ",
"$ $ @ & 7 l z % + 0 E Z.[.*.T e.{.{.G.F.e.;.;.>.j.v.S.'. X2XhXzXxXjXgXgXfXxXfX;X-X-X XD.;.=.%.;.9.r.9.I u z l 7 & @ @ # ",
"$ @ @ # 4 l j p q t D 1./.3.+.:.}.XX|.`.k.;.%.=.;.w.k.v.H. X6XhXjXjXxXMXVXMXbX5X-X*X-XD.;.O.=.;.e.i.0.Y i z l 8 & @ # & ",
"$ $ # # ; h k 6 e C D L R y.q.j.L.oXoXOXN.A.A.n.r.c.B.B.].*XhXxXNXBXVXVXVXMXzX5X[./././.j.<.=.-.t.p.1.Y a k h < # # $ $ ",
"$ $ # # * 6 6 ; + + q + + J U @.7.^.oX}.L.L.{.'.[. X.X1X4X9XjXnXVXVXVXVXMXzX5X].z.-.r.`.v.f.<.-.0.u.~ J h l 6 & # # $ $ ",
"= $ $ # O O O .             + t y ! s.`.P.{.|.XX*X1X3X9XwXwXlXmXBXBXNXNXfX=XL.b.<.=.>.B.B.h.<.8.y.3.! f k k < @ # $ $ > ",
"> = $ $ X     - ; * * ; * * - - X . y 9.S.`.{.|.XXoX3X9X9X0XeXkXfXfX;X=X X`.F.b.h.f.f.B.S.i.-.0.y.4.g j k 8 , @ # $ $ $ ",
"$ > $ $ o   X ' yXyXyXyXyXyXX.{ ` e   0 T 9.C.S.[. X.X.X.X X X X%X.X X.X<X%X].S.G.b.b.m.p.y.y.y.4.! b k h : & # $ # > = ",
"> $ $ $ X   . ` yXpXpXyX..yXiXiXyX' 2 o D T @.%.9.r.z.z.x.l.v.M.)..X<X4X4X&X|.'.G.v.h.t.i.p.u.3.^ b l j 6 & @ $ $ > $ > ",
"> $ > $ % o + f [ iXuX[ M B | iXpXyXM o r D P P O.O.=.=.<.<.h.b.H.&X4X0X4X&X[.).l.l.z.r.u.a.u./ W x k 4 * # # $ = $ > > ",
"> > > $ # o X c | pXyXM     _ yXiXuX`   q L $.@.@.$.=.<.f.h.F.N.B.'.&X&X.X X[.V.M.l.i.T.T.6./ W x k 7 : @ # $ $ > $ > > ",
"> > > > @ o . n  .pXuXM     M X.pXyX`   t T <.<.-.>.h.h.b.b.v.K.H.`./.].(.+X+X+Xa.Q.Q.!.W.( b b k h : & @ # = = > > > > ",
"> > > = @ X . n  .pXuX' s m | iXpX .n o Y 7.q.q.>.-.>.f.f.q.z.l.m.V.^.+X+X(.(.#X!.rX!.] _ W j k 7 ; & # # = = = = = = > ",
"= > > > $ o . b  .pXsXo. .X.iXaXuX` * o Y 3.p.m.t.9.7.7.q.9.0.y.p.^.T.(.@X!.rXrXrXtX] _ b k k 8 < & @ # = = = = > > > e ",
"> > > > $ . . n  .aXaXsXuXuXpXpXo.B O o y ~ u.u.u.u.y.y.y.y.p.Y.T.R.@X!.rXrXtXtX] _ n c N j 8 , @ # # > = = > > > > > > ",
"> > > > $ X o n  .aXo.B < M | uXpXuXB   o u Y ~ 4.u.u.U.U.Y.T.R.R.R.R.~.W.] _ b n n k k 7 < & # $ $ $ $ > = , > > > > > ",
"> > > > $ X . n  .aXsXM   O 4 } aXaX .7 o & d g ) ) ! ! ~ ~ / / ( ( _ Q _ b n n k k 7 2 : & # $ $ $ > > > > > > > > > > ",
"> > > > $ X . n X.aXuXM       n sXaXo.M O ; h h 7 a a g g g g g b 8 b 7 j l l j 7 4 < & # $ $ = $ > $ > > > > > > > > > ",
"> > > > $ X X n  .aXsXB . X O B aXaXX.n . O 7 j k k k k j j l k l l k k j j 7 < * # # $ $ $ = = > > > > > > > > > > > > ",
"> > > > @ o . n X.aXsX{ M B { o.aXaX{ .   X , : < 3 4 h j j c j 7 8 2 < : , , $ # # = = = = = > > > > > > > > > > > > > ",
"> > > > @   X } o.dXaXsXuXo.aXaXsXX.n     X # $ = * * : 1 1 3 1 : , & & $ # @ # = = = = > = > > > > > > > > > > > > > > ",
"> > > > @   X M { |  . . . . .{ ' n O . X # = $ $ $ $ # $ $ $ $ $ $ # & $ $ $ = = = = > = > > > > > > > > > > > > > > > ",
"> > > > # o . .                       o # = > = = $ = $ $ $ $ = $ $ = = > $ > > > > = > > > > > > > > > > > > > > > > > "
};
