/* XPM */
static char *result[] = {
/* columns rows colors chars-per-pixel */
"60 60 209 2 ",
"   c #040203",
".  c #0B0A0E",
"X  c #070509",
"o  c #0F0E11",
"O  c #1C0E12",
"+  c #100F10",
"@  c #131112",
"#  c #1E1216",
"$  c #1D1519",
"%  c #1B191A",
"&  c #230605",
"*  c #2D0B09",
"=  c #290807",
"-  c #350B0B",
";  c #3B0C0C",
":  c #22140B",
">  c #29110F",
",  c #33120E",
"<  c #3C110D",
"1  c #360E11",
"2  c #3F0D10",
"3  c #241315",
"4  c #2D1313",
"5  c #22151A",
"6  c #2C171B",
"7  c #26191E",
"8  c #2C1A1C",
"9  c #261911",
"0  c #341513",
"q  c #3A1513",
"w  c #3C1A16",
"e  c #341719",
"r  c #331B1B",
"t  c #3C1C1A",
"y  c #341715",
"u  c #29211F",
"i  c #34211F",
"p  c #3F211E",
"a  c #2A1D24",
"s  c #221E24",
"d  c #3B1C21",
"f  c #232124",
"g  c #2E2225",
"h  c #29262D",
"j  c #342324",
"k  c #3C2123",
"l  c #34252B",
"z  c #3B262A",
"x  c #36292E",
"c  c #3C2A2C",
"v  c #382B27",
"b  c #332C33",
"n  c #3B2C33",
"m  c #2F3038",
"M  c #3D3134",
"N  c #34333D",
"B  c #3D343A",
"V  c #3A393D",
"C  c #2B2B34",
"Z  c #430D0D",
"A  c #490D0C",
"S  c #450F11",
"D  c #4C0F13",
"F  c #451313",
"G  c #4A1112",
"H  c #411D1A",
"J  c #4A1C1D",
"K  c #451A18",
"L  c #521215",
"P  c #581417",
"I  c #57171B",
"U  c #750F1F",
"Y  c #63161C",
"T  c #6C161E",
"R  c #611F1C",
"E  c #72161E",
"W  c #731C1F",
"Q  c #7C161D",
"!  c #41271B",
"~  c #48231E",
"^  c #441E22",
"/  c #581B25",
"(  c #7D0F20",
")  c #621B22",
"_  c #7B1320",
"`  c #7C1922",
"'  c #741823",
"]  c #412325",
"[  c #44242A",
"{  c #492B2D",
"}  c #5C272E",
"|  c #55262D",
" . c #51372D",
".. c #452F34",
"X. c #592B34",
"o. c #423335",
"O. c #42353B",
"+. c #44393D",
"@. c #4A3A3D",
"#. c #4B3438",
"$. c #533338",
"%. c #78222D",
"&. c #692D36",
"*. c #534236",
"=. c #3D3D45",
"-. c #323541",
";. c #453B43",
":. c #4A3C43",
">. c #413F4C",
",. c #4A3E49",
"<. c #473741",
"1. c #593E48",
"2. c #583D46",
"3. c #613D45",
"4. c #723F4E",
"5. c #4F4246",
"6. c #43424C",
"7. c #4B434B",
"8. c #524346",
"9. c #53454B",
"0. c #5A4A4E",
"q. c #4D4750",
"w. c #4B4A53",
"e. c #4D4D58",
"r. c #454550",
"t. c #554651",
"y. c #544B54",
"u. c #5A4D54",
"i. c #524C5A",
"p. c #5A4955",
"a. c #53525D",
"s. c #5C535C",
"d. c #595254",
"f. c #62464F",
"g. c #644F5A",
"h. c #63545C",
"j. c #6A585F",
"k. c #5C5664",
"l. c #5D5A64",
"z. c #5E5B69",
"x. c #575462",
"c. c #625662",
"v. c #645A64",
"b. c #6A5B63",
"n. c #635F6B",
"m. c #6A5E69",
"M. c #705E61",
"N. c #5D616B",
"B. c #63616E",
"V. c #6B636D",
"C. c #6D6969",
"Z. c #73656C",
"A. c #646371",
"S. c #6A6571",
"D. c #6C6A76",
"F. c #6D6B79",
"G. c #6E6778",
"H. c #716572",
"J. c #756A77",
"K. c #746D7A",
"L. c #796E7C",
"P. c #6E7172",
"I. c #72737D",
"U. c #7B727E",
"Y. c #7A7A7B",
"T. c #7A7877",
"R. c #80171F",
"E. c #891924",
"W. c #801120",
"Q. c #951C27",
"!. c #9B2029",
"~. c #87767F",
"^. c #767583",
"/. c #7A7683",
"(. c #7D7B84",
"). c #7C7C89",
"_. c #837684",
"`. c #857B8B",
"'. c #8A7E8C",
"]. c #837D87",
"[. c #877D90",
"{. c #7F8182",
"}. c #838486",
"|. c #86848B",
" X c #898B8C",
".X c #86898B",
"XX c #8A8394",
"oX c #8D8F90",
"OX c #8E849C",
"+X c #938695",
"@X c #91869C",
"#X c #95899A",
"$X c #988E9E",
"%X c #8E9193",
"&X c #929495",
"*X c #97979A",
"=X c #9E93A4",
"-X c #9E9CA5",
";X c #988DA9",
":X c #A59AAC",
">X c #A599AC",
",X c #AA9CB0",
"<X c #9DA1A2",
"1X c #A3A6A9",
"2X c #AEA2B5",
"3X c #B0A4B7",
"4X c #B1A5B8",
"5X c #B3A8B8",
"6X c None",
/* pixels */
"6X6X6X6X6X6X6X6X6X6X6X6X6X6X6X6X6X6X6X6X6X6X6X6X6X6X6X6X6X6X6X6X6X6X6X6X6X6X6X6X6X6X6X6X6X6X6X6X6X6X6X6X6X6X6X6X6X6X6X6X",
"6X6X6X6X6X6X6X6X6X6X6X6X6X6X6X6X6X6X6X6X6X6X6X6X6X6X6X6X6X6X6X6X6X6X6X6X6X6X6X6X6X6X6X6X6X6X6X6X6X6X6X6X6X6X6X6X6X6X6X6X",
"6X6X;XOX6X6X6X6X6X6X6X6X6X6X6X6X6X6X6X6X6X6X6X6X6X6X6X6X6X6X6X6X6X6X6X6X6X6X6X6X6X6X6X6X6X6X6X6X6X6X6X6X6X6X6X6X6X6X6X6X",
"6X6XOXXX6X6X6X6X6X6X6X6X6X6X6X6X6X6X6X6X6X6X6X6X6X6X6X6X6X6X6X6X6X6X6X6X6X6X6X6X6X6X6X6X6X6X6X6X6X6X6X6X6X6X6X6X6X6X6X6X",
"6X@X[.`.6X6X6X6X6X6X6X6X6X6X6X6X6X6X6X6X6X6X6X6X6X6X6X6X6X6X6X6X6X6X6X6X6X6X6X6X6X6X6X6X6X6X6X6X6X6X6X6X6X6X6X6X6X6X6X6X",
"6X,X@XL.v.6X6X6X6X6X6X6X6X6X6X6X6X6X6X6X6X6X6X6X6X6X6X6X6X6X6X6X6X6X6X6X6X6X6X6X6X6X6X6X6X6X6X6X6X6X6X6X6X6X6X6X6X6X6X6X",
"6X4X>XL.c.6X6X6X6X6X6X6X6X6X6X6X6X6X6X6X6X6X6X6X6X6X6X6X6X6X6X6X6X6X6X6X6X6X6X6X6X6X6X6X6X6X6X6X6X6X6X6X6X6X6X6X6X6X6X6X",
"6X4X,X_.v.t.6X6X6X6X6X6X6X6X6X6X6X6X6X6X6X6X6X6X6X6X6X6X6X6X6X6X6X6X6X6X6X6X6X6X6X6X6X6X6X6X6X6X6X6X6X6X6X6X6X6X6X6X6X6X",
"6X4X>X`.v.t.6X6X6X6X6X6X6X6X6X6X6X6X6X6X6X6X6X6X6X6X6X6X6X6X6X6X6X6X6X6X6X6X6X6X6X6X6X6X6X6X6X6X6X6X6X6X6X6X6X6X6X6X6X6X",
"6X4X,X'.m.9.:.[ r 6X6X6X6X6X6X6X6X6X6X6X6X6X6X6X6X6X6X6X6X6X6X6X6X6X6X6X6X6X6X6X6X6X6X6X6X6X6X6X6X6X6X6X6X6X6X6X6X6X6X6X",
"6X4X,X+XH.h.8...i ] b.6X6X6X6X6X6X6X6X6X6X6X6X6X6X6X6X6X6X6X6X6X6X6X6X6X6X6X6X6X6X6X6X6X6X6X6X6X6X6X6X6X6X6X6X6X6X6X6X6X",
"6X6X4X=XJ.h.8.@.j k f.Z.6X6X6X6X6X6X6X6X6X6X6X6X6X6X6X6X6X6X6X6X6X6X6X6X6X6X6X6X6X6X6X6X6X6X6X6X6X6X6X6X6X6X6X6X6X6X6X6X",
"6X6X5X>XL.u.8.:.z r @.h.6X6X6X6X6X6X6X6X6X6X6X6X6X6X6X6X6X6X6X6X6X6X6X6X6X6X6X6X6X6X6X6X6X6X6X6X6X6X6X6X6X6X6X6X6X6X6X6X",
"6X6X6X2X'.m.u.8.c r c y.v.6X6X6X6X6X6X6X6X6X6X6X6X6X6X6X6X6X6X6X6X6X6X6X6X6X6X6X6X6X6X6X6X6X6X6X6X6X6X6X6X6X6X6X6X6X6X6X",
"6X6X6X2X$XS.u.8.o.r j @.v.6X6X6X6X6X6X6X6X6X6X6X6X6X6X6X6X6X6X6X6X6X6X6X6X6X6X6X6X6X6X6X6X6X6X6X6X6X6X6X6X6X6X6X6X6X6X6X",
"6X6X6X4X=XJ.u.8.@.j y o.d.6X6X6X6X6X6X6X6X6X6X6X6X6X6X6X6X6X6X6X6X6X6X6X6X6X6X6X6X6X6X6X6X6X6X6X6X6X6X6X6X6X6X6X6X6X6X6X",
"6X6X6X6X,X'.c.5.:.v 9 z 9.v.6X6X6X6X6X6X6X6X6X6X6X6X6X6X6X6X6X6X6X6X6X6X6X6X6X6X6X6X6X6X6X6X6X6X6X6X6X6X6X6X6X6X6X6X6X6X",
"6X6X6X6X3X#Xm.9.o.8 > i @.v.6X6X6X6X6X6X6X6X6X6X6X6X6X6X6X6X6X6X6X6X6X6X6X6X6X6X6X6X6X6X6X6X6X6X6X6X6X6X6X6X6X6X6X6X6X6X",
"6X6X6X6X6X>X_.d.o.e , r V s.6X6X6X6X6X6X6X6X6X6X6X6X6X6X6X6X6X6X6X6X6X6X6X6X6X6X6X6X6X6X6X6X6X6X6X6X6X6X6X6X6X6X6X6X6X6X",
"6X6X6X6X6X6X+Xb.:.t w p +.h.6X6X6X6X6X6X6X6X6X6X6X6X6X6X6X6X6X6X6X6X6X6X6X6X6X6X6X6X6X6X6X6X6X6X6X6X6X6X6X6X6X6X6X6X6X6X",
"6X6X6X6X6X6X=XU.y.{ w H 6Xb.6X6X6X6X6X6X6X6X6X6X6X6X6X6X6X6X6X6X6X6X6X6X6X6X6X6X6X6X6X6X6X6X6X6X6X6X6X6X6X6X6X6X6X6X6X6X",
"6X6X6X6X6X6X6X+XV.@.t w 6XM.6X6X6X6X6X6X6X6X6X6X6X6X6X6X6X6X6X6X6X6X6X6X6X6X6X6X6X6X6X6X6X6X6X6X6X6X6X6X6X6X6X6X6X6X6X6X",
"6X6X6X6X6X6X6X6X~.g.] w H 6X6X6X6X6X6X6X6X6X6X6X6X6X6X6X6X6X6X6X6X6X6X6X6X*X6X XoX6X6X6X6X6X6X6X6X6X6X6X6X6X6X6X6X6X6X6X",
"6X6X6X6X6X6X6X6X+XL.#.w ! 6X6X6X6X6X6X6X6X6X6X6X6X6X6X6X6X6X6X6X6X6X6X6X<X*X{.}.oX6X6X6X6X6X6X6X6X6X6X6X6X6X6X6X6X6X6X6X",
"6X6X6X6X6X6X6X6X6X'.j.H H 6X6X6X6X6X6X6X6X6X6X6X6X6X6X6X6X6X6X6X6X6X<X1X1X&X%X&X.X{.6X6X6X6X6X6X6X6X6X6X6X6X6X6X6X6X6X6X",
"6X6X6X6X6X6X6X6X6X6X~.{ w t 6X6X6X6X6X6X6X6X6X6X6X6X6X6X6X6X6X6X6X|.&X<X*X%X*X%X{.Y.6X6X6X6X6X6X6X6X6X6X6X6X6X6X6X6X6X6X",
"6X6X6X6X6X6X6X6X6X6X6X{ 4 # # 6X6X6X6X6X6X6X6X:.6X6X6X6X6X6X6X6XF.(. X&X%X X%X.XY.6X6X6X6X6X6X6X6X6X6X6X6X6X6X6X6X6X6X6X",
"6X6X6X6X6X6X6X6X6X6X$ # # O O # 7 6Xx n O.n l <.:.6X6X6X6X6X6Xz.F.Y._..X}.{.}.T.P.6X6X6X6X6X6X6X6X6X6X6X6X6X6X6X6X6X6X6X",
"6X6X6X6X6X6X6X6X6X6X# O 3 6 5 # 5 a j x n n l n n 6X6X6X6X6Xx.z.G./.6XT.T.P.6X6X6X6X6X6X6X6X6X6X6X6X6X6X6X6X6X6X6X6X6X6X",
"6X6X6X6X6X6X6X6X6X6X# # 3 w t 3 # 5 a l a a x z J 6X6X6X6Xi.z.A.S.J.6X .*.*.6X6X6X6X6X6X6X6X6X6X6X6X6X6X6X6X6X6X6X6X6X6X",
"6X6X6X6X6X6X6X6X6X6X5 # 3 w H r 5 # 7 a 5 a x d G L L J ,.k.B.n.v.f.%.W R 6X6X6X6X6X6X6X6X6X6X6X6X6X6X6X6X6X6X6X6X6X6X6X",
"6X6X6X6X6X6X6X6X6X6X6X5 6 e H p 6X# $ $ a x l e ; S D [ e.n.A.z.p.%.E.Q.!.E.6X6X6X6X6X6X6X6X6Xa.w.6X6X6X6X6X6X6X6X6X6X6X",
"6X6X6X6X6X6X6X6X6X6X6X6X7 e w ~ 6X6X6X5 l n d - - ; ^ ,.z.N.B.s.X.) ' W ` ' T 6X6X6X6X6X6X6XF.w.6.6X6X6X6X6X6X6X6X6X6X6X",
"6X6X6X6X6X6X6X6X6X6X6X6X6X6Xy w 6X6X6X5 a l q - - 1 d >.z.B.D.F.f./ Y T T T E W.6X6X6X6X6X/.a.=.=.w.6X6X6X:X6X6X6X6X6X6X",
"6X6X6X6X6X6X6X6X6X6X6X6X6X6X> * 6X6X6X6X7 6X6X; ; - 1 n x.D.^.^.^.1./ Y T _ E.W.W.6X6Xs.I.N.V g g 6.6X6X6X:X#X6X6X6X6X6X",
"6X6X6X6X6X6X6X6X6X6X6X6X6X6X6X6X6X6X6X6X6X6X6X6X6X; - d a.^.N.A.^.L.$.I T W.Q.Q U / 2.D.D.6.u : 9 j ;.6X6X-X|.6X6X6X6X6X",
"6X6X6X6X6X6X6X6X6X6X6X6X6X6X6X6X6X6X6X6X6X6X6X6X6X6X6X$.V.N.m N S.|.Z.| Y Q E.U / ;.l.F.l.n 4 : 3 g o.6X-XXXS.6X6X6X6X6X",
"6X6X6X6X6X6X6X6X6X6X6X6X6X6X6X6X6X6X6X6X6X6X6X6X6X6X6XI.B.C X . >.L./.f.) ` ` ' 1.s.S.A.w.! Z w [ O.n 9.[.L.p.m.6X6X6X6X",
"6X6X6X6X6X6X6X6X6X6X6X6X6X6X6X6X6X6X6X6X6X6X6X6X6X6X6XD.6.% X   + i.I.Z.} E Q &.v.V.S.l.O.S A I ^ b n t./.v.<.t.m.6X6X6X",
"6X6X6X6X6X6X6X6X6X6X6X6X6X6X6X6X6X6X6X6X6X6X6X6X6X6XI.a.=.a.f   @ y.U./.3.Y E 3.l.V.A.w.^ Z S S ^ n <.k.^.p.;.<.s.6X6X6X",
"6X6X6X6X6X6X6X6X6X6X6X6X6X6X6X6X6X6X6X6X6X6X6X6X6X6XD.6.h s.V % C.*X].^.h./ ) 9.s.v.l.O.F Z ; S d x <.x.A.,.q.,.;.j.6X6X",
"6X6X6X6X6X6X6X6X6X6X6X6X6X6X6X6X6X6X6X6X6X6X6X6X6X6XI.B.f @ @ f 0.y.q.F.V.| | q.r.r.;.k ; ; ; ; d a B c.v.<.p.t.O.t.b.6X",
"6X6X6X6X6X6X6X6X6X6X6X6X6X6X6X6X6X6X6X6X6X6X6X6X6X6X6X).a.+     X   h A.V.| o.=.B v e 0 - - - 4 a a ,.B.g.<.t.k.7.M 9.6X",
"6X6X6X6X6X6X6X6X6X6X6X6X6X6X6X6X6X6X6X6X6X6X6X6X6X6X6X{.{.r.+   . f e.a.#.] V x y * = - 6X6X4 6 x <.p.V.p.-.y.i.7.n 6X6X",
"6X6X6X6X6X6X6X6X6X6X6X6X6X6X6X6X6X6X6X6X6X6X6X6X6X6X6X6X/.(.w.m q.l.e.V { B j 0 * > 6X6X6X6X6X5 a ;.v.V.7.O.:.y.6.+.6X6X",
"6X6X6X6X6X6X6X6X6X6X6X6X6X6X6X6X6X6X6X6X6X6X6X6X6X6X6X6X6X/.XX/.V.6.N b z r - > y ; Z 6X6X6X6X5 a 7.H.v.;.7.w.i.5.7.6X6X",
"6X6X6X6X6X6X6X6X6X6X6X6X6X6X6X6X6X6X6X6X6X6X6X6X6X6X6X6X6Xn.K.z.6.N C e - , q p , < 6X6X6X6X6X6Xn v.K.p.M ,.v.l.7.6X6X6X",
"6X6X6X6X6X6X6X6X6X6X6X6X6X6X6X6X6X6X6X6X6X6X6X6X6X6X6X6X6X<.r.=.N V v p ! ! ! F F < Z 6X6X6X6X6Xi.J.H.,.x x 7.y.y.6X6X6X",
"6X6X6X6X6X6X6X6X6X6X6X6X6X6X6X6X6X6X6X6X6X6X6X6X6X6X6X6X6Xe b N n k H K H F L A ; - ; Z A K 6X6XL.U.c.;.x l n ;.6X6X6X6X",
"6X6X6X6X6X6X6X6X6X6X6X6X6X6X6X6X6X6X6X6X6X6X6X6X6X6X6X6X6X; d [ I P P P P D Z - - - - ; A Z A f.L.H.t.O.;.n B ;.6X6X6X6X",
"6X6X6X6X6X6X6X6X6X6X6X6X6X6X6X6X6X6X6X6X6X6X6X6X6X6X6X6X6X- ; L Y Y Y P F ; - - - - - - Z A J g.L.v.:.;.7.,.5.7.6X6X6X6X",
"6X6X6X6X6X6X6X6X6X6X6X6X6X6X6X6X6X6X6X6X6X6X6X6X6X6X6X6X6X6X- S G D ; ; - - - - - - - - ; Z J g.S.h.;.;.7.q.9.6X6X6X6X6X",
"6X6X6X6X6X6X6X6X6X6X6X6X6X6X6X6X6X6X6X6X6X6X6X6X6X6X6X6X6X6X; ; - & & - - - - - - - - - - Z ; z 8.0.;.B ;.;.6X6X6X6X6X6X",
"6X6X6X6X6X6X6X6X6X6X6X6X6X6X6X6X6X6X6X6X6X6X6X6X6X6X6X6X6X6X6X* & & * - - - - - - - ; - - ; ; w +.0.:.n B +.6X6X6X6X6X6X",
"6X6X6X6X6X6X6X6X6X6X6X6X6X6X6X6X6X6X6X6X6X6X6X6X6X6X6X6X6X6X6X6X6X= - - - - - 6X6X6X6X6X6X6X6X6XM 8.8.o.o.6X6X6X6X6X6X6X",
"6X6X6X6X6X6X6X6X6X6X6X6X6X6X6X6X6X6X6X6X6X6X6X6X6X6X6X6X6X6X6X6X6X6X6X6X6X6X6X6X6X6X6X6X6X6X6X6X6X*.0.O.M 6X6X6X6X6X6X6X",
"6X6X6X6X6X6X6X6X6X6X6X6X6X6X6X6X6X6X6X6X6X6X6X6X6X6X6X6X6X6X6X6X6X6X6X6X6X6X6X6X6X6X6X6X6X6X6X6X6Xo.9.*.6X6X6X6X6X6X6X6X",
"6X6X6X6X6X6X6X6X6X6X6X6X6X6X6X6X6X6X6X6X6X6X6X6X6X6X6X6X6X6X6X6X6X6X6X6X6X6X6X6X6X6X6X6X6X6X6X6X6Xn @.6X6X6X6X6X6X6X6X6X",
"6X6X6X6X6X6X6X6X6X6X6X6X6X6X6X6X6X6X6X6X6X6X6X6X6X6X6X6X6X6X6X6X6X6X6X6X6X6X6X6X6X6X6X6X6X6X6X6X6X6X6X6X6X6X6X6X6X6X6X6X",
"6X6X6X6X6X6X6X6X6X6X6X6X6X6X6X6X6X6X6X6X6X6X6X6X6X6X6X6X6X6X6X6X6X6X6X6X6X6X6X6X6X6X6X6X6X6X6X6X6X6X6X6X6X6X6X6X6X6X6X6X"
};
