/* XPM */
static char *result[] = {
/* columns rows colors chars-per-pixel */
"60 60 256 2 ",
"   c #1A151B",
".  c #14120B",
"X  c #3B170D",
"o  c #261916",
"O  c #3A1A13",
"+  c #2F1109",
"@  c #382718",
"#  c #2D2A15",
"$  c #1A1826",
"%  c #1B1C30",
"&  c #261A23",
"*  c #122C33",
"=  c #192A37",
"-  c #0E333A",
";  c #14343A",
":  c #162B2B",
">  c #272938",
",  c #30302F",
"<  c #13210D",
"1  c #46190C",
"2  c #531D0C",
"3  c #461C12",
"4  c #561F11",
"5  c #59230E",
"6  c #442B1D",
"7  c #472916",
"8  c #562915",
"9  c #4B3218",
"0  c #563517",
"q  c #4D270F",
"w  c #65270E",
"e  c #682D16",
"r  c #683817",
"t  c #773A17",
"y  c #752D0E",
"u  c #5D1D2C",
"i  c #611E2D",
"p  c #462C23",
"a  c #572A28",
"s  c #4A3425",
"d  c #563826",
"f  c #513235",
"g  c #663B26",
"h  c #7A3924",
"j  c #682736",
"k  c #682C2F",
"l  c #641F0A",
"z  c #384438",
"x  c #314623",
"c  c #694317",
"v  c #774619",
"b  c #74541B",
"n  c #4E4334",
"m  c #694428",
"M  c #784925",
"N  c #735031",
"B  c #586028",
"V  c #0F3B43",
"C  c #2D364A",
"Z  c #75354C",
"A  c #6B366A",
"S  c #16565B",
"D  c #114951",
"F  c #374459",
"G  c #334F4F",
"H  c #37685B",
"J  c #0B5968",
"K  c #354764",
"L  c #126468",
"P  c #0E6C71",
"I  c #2D6E71",
"U  c #4B514F",
"Y  c #764950",
"T  c #695369",
"R  c #526F68",
"E  c #6E7372",
"W  c #606359",
"Q  c #853B11",
"!  c #823E24",
"~  c #884918",
"^  c #954B15",
"/  c #88561A",
"(  c #985718",
")  c #96440E",
"_  c #A55A14",
"`  c #AE5410",
"'  c #AB6519",
"]  c #B96B18",
"[  c #BC7719",
"{  c #AF7615",
"}  c #874725",
"|  c #895426",
" . c #995827",
".. c #985C35",
"X. c #8A5432",
"o. c #A55A2B",
"O. c #9B6427",
"+. c #9A6535",
"@. c #916D30",
"#. c #A6682A",
"$. c #A9762D",
"%. c #B7772C",
"&. c #A66735",
"*. c #A97633",
"=. c #B67838",
"-. c #B46A2C",
";. c #9D621B",
":. c #C67918",
">. c #CB6A15",
",. c #C57828",
"<. c #C77B33",
"1. c #DD7612",
"2. c #86534D",
"3. c #916D4E",
"4. c #B77743",
"5. c #A7794F",
"6. c #8E526B",
"7. c #8D7675",
"8. c #AA7A6F",
"9. c #5D9637",
"0. c #15867E",
"q. c #6C8C7A",
"w. c #598871",
"e. c #4FA44B",
"r. c #B5901A",
"t. c #BA982C",
"y. c #AB8639",
"u. c #B78833",
"i. c #B39031",
"p. c #BAA52F",
"a. c #948F2B",
"s. c #C88517",
"d. c #D49419",
"f. c #EC8C17",
"g. c #D1AD19",
"h. c #E5B81A",
"j. c #F2AF1A",
"k. c #C78937",
"l. c #C89937",
"z. c #D09531",
"x. c #ED9A30",
"c. c #C6A72B",
"v. c #D7B926",
"b. c #CAA735",
"n. c #D5AA39",
"m. c #D7B638",
"M. c #D3AE2C",
"N. c #E8B522",
"B. c #EFB02D",
"V. c #E5C71B",
"C. c #F9D21C",
"Z. c #D9C62C",
"A. c #E7C924",
"S. c #FBC623",
"D. c #EAD628",
"F. c #FDD824",
"G. c #E8C63C",
"H. c #F5C83C",
"J. c #EBD937",
"K. c #F7D937",
"L. c #FCE627",
"P. c #FCF82C",
"I. c #FEFD33",
"U. c #FCF535",
"Y. c #F4E636",
"T. c #E5CD1C",
"R. c #B2874A",
"E. c #8E8978",
"W. c #B9976A",
"Q. c #A1A75D",
"!. c #C68845",
"~. c #D79949",
"^. c #D69B56",
"/. c #CB944F",
"(. c #E29B4C",
"). c #D8A55B",
"_. c #D4AD4C",
"`. c #E4A857",
"'. c #E7B753",
"]. c #D5AF6D",
"[. c #E7B56A",
"{. c #E7BA77",
"}. c #E8B169",
"|. c #C29A6C",
" X c #AFCA4E",
".X c #F9D946",
"XX c #ECCE44",
"oX c #FDE047",
"OX c #F1C577",
"+X c #D9C467",
"@X c #B4DB3A",
"#X c #06728B",
"$X c #127A93",
"%X c #794995",
"&X c #755EB0",
"*X c #6C7BCC",
"=X c #6B3D86",
"-X c #96708C",
";X c #9168A4",
":X c #0F8C8C",
">X c #2F8F93",
",X c #0993AF",
"<X c #0CB1B5",
"1X c #2CADA2",
"2X c #718F85",
"3X c #6DAC93",
"4X c #71BAAE",
"5X c #539C98",
"6X c #61C6AA",
"7X c #0EADD1",
"8X c #72A0E8",
"9X c #0DCDD0",
"0X c #08D4E5",
"qX c #07FAFC",
"wX c #17FCFD",
"eX c #07EAE9",
"rX c #2DF5F2",
"tX c #27DFD6",
"yX c #4BE7EA",
"uX c #6DF3FB",
"iX c #63D9CF",
"pX c #25C1A0",
"aX c #90918E",
"sX c #91A496",
"dX c #AAAC8C",
"fX c #92B3A9",
"gX c #AEB1A9",
"hX c #A292A1",
"jX c #CEB599",
"kX c #91CCBA",
"lX c #B0C7B8",
"zX c #BEC69F",
"xX c #EBC589",
"cX c #FAD699",
"vX c #F2CD8D",
"bX c #D2CAB0",
"nX c #F9DBA7",
"mX c #EBD7AE",
"MX c #FBE4AA",
"NX c #FBE8B7",
"BX c #FEF3B9",
"VX c #E8D693",
"CX c #90DACA",
"ZX c #97E5D3",
"AX c #A9EAD6",
"SX c #9EE4E2",
"DX c #C7DBCD",
"FX c #FEFBCB",
"GX c #FEF7C5",
"HX c #FEFED4",
"JX c #FDFEDA",
"KX c #EEE9C8",
"LX c #CEF9ED",
"PX c #F3FDF3",
"IX c #D9E9CF",
"UX c #96A5E1",
/* pixels */
"= * * * * : * * - , 8 2 5 r t t c v v t @ : * V J S S S L S J S S S L L L P L L L L L E R S D G D D G V V G U G ; > ; ; ",
"* : * * * * * * ; ; 8 2 w r v M M v } Q X . . < - J L L L L L L L L L L P 0.L P I L E E.-XE S D G D D V F aXE T G ; ; C ",
"* * * * * * - - * ; 7 4 w r v v } ~ v y x S : . . * P P 0.0.P P 0.P P 0.0.0.:X>X:XP aXE E aXaXS D F D D 2X-XW T R G ; ; ",
"* : * * - - - - D > 4 2 w y v ~ / } t y z 0.:X0.- . D <X:X:X:X:X:X:X:X:X0.1X1X:X:X2XhX2Xq.-XaX2XS S D R hXW H R G W G ; ",
"* * - * - - ; V V V 5 l l y t v } v t U 0.,X<X<X9XL + 0.9X<X9X<X<X<X<X<X<X<X<X<X:XsXsX2X2XaX&XdX2XS S aX2XR H W H U W G ",
"* * - - - ; V D D D , z n w w r v y B <X<X9X9X0XqXwXD : eXwXwXwXqXqXqXqXqXeX9X9X1XgXsXaX2XaXaXaXgXR H gXE E G R H H E U ",
"; * - V - D V S J J L #X:XH r y y m pXeXeXqXqXqXrXtX>X. 5XiX4XiXiXyXyXrXwXqXqXqXSXlXfXfXhXsXsXaXgXgXaXhXE q.H R H H E E ",
"; - - - V S : = P #X:X,X<X9X5Xq.3XtXqXqXwXyX6XsXE.8.8.# n y.$.i.R.R.Q.dXlXCXuXuXPXLXCXfXfXfXfXfXgXgXlXsX2Xq.w.R w.H W q.",
"* - V V V J D X S ,X<X$X9X0XtXrXiXiXyX4XhX-X8.5.R.5.Q.d , Q.i.a.p.p.p. X_. X].].bXPXLXZXkXkXfXfXgXgXbXhX2X2Xw.w.w.w.q.8.",
"; - V S J J J & o ,X1X, pX1XR U n -X8.8.5.R.5.R.y.R.p.b # p.c.p.p.p.b.b.b.n.c.d.t.l.VXLXLXCXCXlXlXbXbXfX2XsXw.w.E.q.E.E.",
"V V V D J P #X, + $XI 1 z O 3 d E.8.E.5.R.R.y.i.p.i.b.b # p.M.c.M.v.v.v.v.v.v.M.M.d.s._.IXLXSXCXDXbXlX4X3XsXsXq.sXw.q.7.",
"V V V J J P $X@ + @ 6 + X @ f 7.E.5.5.*.y.i.i.t.t.p.m.a.x m.Z.Z.Z.Z.Z.T.A.A.N.N.N.N.B.M.b.mXPXLXDXIXlX4X3X3XdXsXq.w.w.E.",
"V V J #X#X#X#X3 + 1 X + O p 3.3.5.*.y.i.t.t.p.c.M.b.Z.p.a.XXZ.J.J.D.D.D.D.D.S.h.N.B.N.B.M.M.VXPXPXmXCXiX3X3XzXsX3Xq.q.E.",
"V J J J $X$XK 1 + 1 1 X 1 g 3.3.@.$.r.i.t.p.c.v.Z.G.v.N.Y.J..XJ.J.Y.Y.Y.F.D.S.S.N.j.B.N.M.m.m.VXPXDXkXuX6X4XbXkX3X3Xq.aX",
"V D #X% D >Xf + X X 1 1 4 h @.@.$.{ r.r.p.c.G.Z.m.N.v.J.Y.oXY.U.U.U.U.U.L.L.L.F.S.j.j.j.N.x.B.n.bXDXgXSXiXiXDXkX6X4X3XdX",
"J J #XD + > 1 + X 1 1 1 4 ! @.O.r.r.r.p.g.Z.t.b | a.+XZ.U.Y.U.U.S.H.S.L.L.P.L.F.F.S.j.B.B.x.x.z.^.bXbXSXiXZXAXCXkXkXkXgX",
"D #X$XI O X 1 X + 1 2 5 5 ) ;.{ r.r.g.g.T.p.0 x B  XBXa.T.P.P.Y.B.B.'.B.L.U.L.F.C.S.S.j.B.x.x.k.].mXbXAXSXAXAXZXAXCXkXlX",
"J #X$X>XO X 1 1 X 1 2 5 y v a.r.r.r.g.Z.T.a.x B B Q.9.@XZ.P.I.U.H.B.B.B.F.L.L.F.F.S.S.j.j.x.OXx.mXmXzXLXLXAXAXZXZXCXkXlX",
"J #X,X$XX 1 1 1 1 2 5 y y ) { r.r.g.g.Z.D.a.9.e.e.B 9.@XD.I.I.I.P.L.F.L.P.P.L.F.F.F.S.S.j..XVXVXNXmXzXDXLXLXDXAXAXAXZXlX",
"J #X7XU + 1 4 1 1 2 y v ) ) { r.g.g.Z.T.D.T.9.3XpXpXe.@XI.I.I.I.P.P.P.P.P.P.L.F.j.j.B.B.j.cXMXMXcXmXQ.W.bXIXLXLXAXfXE.sX",
"J #X,XC X 1 2 4 2 w t ~ _ ) { d.g.@XT.T.T.C.C.@X X XD.P.I.I.I.I.P.P.L.C.j.f.f.1.>.,.] ] `.MXMXmXmXjXdXW.W.bXAXE Y d d gX",
"J #X7Xf X 3 4 4 5 y ~ ( ;._ r.g.g.V.T.T.C.C.C.C.C.F.L.P.I.I.I.L.j.j.f.>._ ) ~ / / ~ r N MXNXmXmXxX|.dXW.!.dXY 6 s 9 E AX",
"P #X7XU 1 1 e w w t ) ( ;._ { g.g.T.T.T.L.C.C.C.L.L.L.P.P.C.j.1.] ) c c v / ( #.' *.+XVXBXNXnXVX{.W.R.<.R.W s n d d W 3.",
"#X,X7X>X1 7 8 r r ~ ~ ( _ ` :.g.V.V.V.g.h.C.C.L.F.L.F.S.f.>._ c c b b b ( ( ( O.O.xXFXFXGXNXnXOX}./.!.&.5.N p d s d 8 d ",
"$X,X7X5Xu p a t t t ^ ( ( ) s.g.g.V.C.s.d.F.F.F.L.S.f.>.) c c b / b c 9 # #  ._ |.GXGXFXGXnXcXxX).k.=...3.d s d s d d d ",
"$X,X7X7Xf & a r v t t ^ ^ ) s.d.h.h.j.s.j.C.F.C.f.1.) c c b / / 0 @ < # 0 _ ,.^.BXJXGXGXGXNXnX}.^.!.......a s 9 a s s s ",
",X7X0XtXU s 6 8 e e w t Q Q s.g.g.h.j.>.j.F.S.f.>.~ c b / / ;.0 + @ b -.s.k.VXJXHXFXGXGXGXnXxX^./.4.X.X.3.d @ s p p 6 p ",
"7X7X0XeXE f f 6 q 5 8 w w Q s.d.g.j.:.s.F.S.f.` c / r.;./ ;./ # @ #.<.,.^.BXJXJXHXHXGXNXnXxX}.^.R.&...X.3.s 6 s 6 6 6 @ ",
"7X7X0XwXiXT Y m 8 q q 5 y _ s.d.d.d.] h.j.f.` v { l.+Xy./ O.b o c ,.,.}.JXJXHXHXFXGXNXNXnXxX)./.R.4...@.Y @ p s p p 6 6 ",
"*X7X0XqXwXiXE N v t ~ _ { :.s.d.f.` d.C.f.) r ;.l.+X+X].;.;.b o o.<.`.HXJXJXHXFXGXGXKXnXVX]./.R.=.&. .2.N # 6 @ 9 a 6 6 ",
"&X*XyXyXwXuXaX3.| / ( { { :.:.:.` d.S.f.) c O.t._.].{.OX*. ./ @ -.(.NXJXJXHXFXFXGXNXnXxX[.^.!.4.&.&.X.2.9 @ 6 6 p 6 @ @ ",
"&X*X8X8XuXSX8.+.| ~ ( ` ] [ ` ` s.h.1.` 0 / k._.].{.{.OX).-.o.9 z.OXHXFXHXGXNXnXcXvX{.}.^./.4.4...o.3.m @ @ 6 6 6 6 @ @ ",
"&X&X8X8XuXDX6.X.~ ~ ( _ ] ] [ d.g.d.` r v %.l._.].{.+X].]._.x.%.'.BXGXFXBXcXOX'.`.{.{.].^.!.4.+.o.o.N @ @ 6 s 6 9 6 @ @ ",
"%X&X8XUXSXDX3.W } ~ ( ] ] [ :.d.x.>.t 7 b %./.).].].[.{.OXOXOXOXvXGXGXGXOX~.=.).{.xXxX}./.4.&.o. .N p 6 0 9 9 9 s @ @ @ ",
"%X;X&X*XUXUXz z v r 0 ( :.>.:.s.s.~ q 8 r v *./.).).{.vXBXBXFXGXGXGXFXMX(.} 5.MXxX{.{.^.!.=.o.o.| } 0 9 9 6 9 7 @ 6 @ @ ",
"%X%X&X*X5Xz x N v   G n ;.,.:.:.' 0 q r c t M =.).'.OXBXFXHXHXHXFXGXGXMXOX+.W.MXxX{.).!.4.-.o. .( c 9 9 9 9 9 @ @ @ & @ ",
"=X=X%X&XF x E.@.d : z , 9 ] :.] / 7 q r r h t ~ R.`.vXGXFXFXFXGXFXGXGXNXvX&.|.MXxX].).!.=.o. . .c 9 9 9 9 9 9 9 @ @ # # ",
"A =X%X%X< hXdXX.d - # o @ _ [ #.c O 0 r t t ~ ! o.`.nXGXFXMXxX).MXGXNXNXOX+.|.cXOX}.^.=.-.o. .0 9 q q 9 9 9 q q 9 @ @ 9 ",
"A A =X, , UXhXX.M > : $ @ ` [ | 9 3 e r r v ! } ^ (.nXBXxX!.(...VXBXNXcX[.+.{.vX{.).k.-.#.#.v 0 c b c q 9 q 9 @ # @ @ m ",
"Z A A o n hXhX2.~ n G , t _ -.M 7 7 r h r r h X.o.x.nXnX4.=...W.MXMXNXcX`.-.{.OX}.~.,.-.-._ 0 ^ _ ;.{ ( c 0 q @ 9 9 @ n ",
"Z Z f < Y ;XhX3.N ~ h r Q ' o.g q O # . o o O 3 ` (.cXxX} M d /.cXNXnX{.<.k.OX[._.k.,.-.' v / ' ' { { ' ( / c t t v m m ",
"Z Z s . Y ;XhXaXN } Q Q Q ` ( d X o . q t v ! o.<.}.cXnX|.].xXvXNXnXvX(.#.).OX'.~.k.%.-.( ~ ] ' ' [ [ ' _ _ ( ^ ~ v M N ",
"d m c 0 2.6.-XhX3.v v e Q ^ M a O o @ h  .R.].xXcXcXnXNXNXMXnXNXcXvX^.-.!.[.[.~.k.,.%.' ~ ] >.r.d.g.s.] ' ( ( ) ~ ~ b N ",
"v b b b v 2.-X-XaXM v h e Q m 9 X o q 4.].mXKXNXmXmXnXnXnXcXcXvX}.~.-.<.'.'.(.k.<.,.,._ ] 1.g.h.h.V.g.[ _ ( ) ^ ( } v M ",
"b b b N b N 6.6.-XE.M t e Q g 6 O + 3.jXbXmXmXmXvX|.}.xX{.}.`.~.-.-.!.`.(.~.k.<.,.,.] ] s.h.V.V.V.V.g.:._ ( ^ _ ( | M m ",
"c c b b b b X.-X7.-X7.t e h g 8 h 2.|.jXbXbXmXxX^.! ! o.&...o.o.<.(.'.(.~.<.,.<.,.[ >.s.h.C.T.T.A.N.g.:._ ^ ^ ^ M b c m ",
"r c c c c v t 6.6.-X;X6.r e g 2.8.|.hXjXjXjXjX^.4.4./.4.!.!.^.`.`.`.(.z.<.,.,.,.>.] d.D.D.D.D.A.A.v.d.[ _ ( ^ / M c m m ",
"5 0 c 0 e e y 6.Y 2.Y Y N N 2.3.3.8.4.8.4.|.|.!.4.^.^.^.`.^.(.(.(.4.&.o.-.,.>.' %.N.D.D.D.J.J.A.N.d.s.' _ ` ^ v c m c m ",
"5 5 8 5 5 5 k 2.A k g N Y N Y 2.N X.2.3.4.4.5.=.4.4.4.4.4.4.4...m C G C n N >.d.D.J.J.J.J..XG.G.x.k.-.' ' ) v t g c m m ",
"5 5 8 8 8 7 j Z 6.Y a k k m g g m N N X.X.........&.....X.h a , K K K U n z u.Y.K.J.Y.J.XXXXXXn.z.u.%.] ^ Q t c c c g d ",
"9 9 9 q 9 k Y Z Z 6.Y u f a s a d g M M M M X.X.N k u > > > % C F K K U G n , t.K..XXXXXXXXX_.l.k.k.{ ( ~ t t c r g g d ",
"8 a a a k j Z Z Z Y A $ $ $ $ o & @ a f f f p @ & % C = C K C C , , U K H U z N H.J.H.XX_.m.l.k.u.-. .^ v t r e 8 0 e g ",
"j i i j j j Z Z Z 2.Z   &   $ $ % % $ $   o $ % > C K K K K F F C , , U U U f n u.B.~.l.l.k.=.=.#.#.( v t 0 5 2 3 q q 7 ",
"u u i j j j j j j Z u $ & $ $ % % > V C % O & > C K K K K K F F C C , , z U n , $.k.k.k.k.=.$.O./ v r 8 q 1 1 1 3 3 3 3 ",
"u u i i j j j j j Z u $ $   $ $ % > > > > & & C C C C C K C F C , > > , G F , n -.,.%.$.&.O. .| M t r e 8 1 X X X X + O ",
"i u i a i k j j Z h Z p         $ $ $ $ $   $ % % > = = C C > > > f n X.+.@.*.l.n.~.z.~.z.l.n.n.n.b.b.u.%.$. .| h k 3 O ",
"i u u u u i k ! } } } ! g a s 6 p p d g N X.X.b N m N n N @.@.y.k.n.'.B.XX'.H.XXH.H.H.G.G.m.XXm.m.b.b.c.l.u.u.$.$.#. .} ",
"u u u i h ! ! } ! ! ! X. .O.#.*.*.$.%.%.u.k.l.l.l.b.n._.m.G.XXXX.X.X.X.XoXoX.XoX.X.X.XXXG.G.m.m.n.c.t.l.i.u.u.$.$.$.#.&.",
"u i h h ! ! ! ! ! } X. . .+.#.$.%.$.u.u.t.t.l.b.b.n.m.m.m.'.'.XXXX.X.XoXoXoXoX.X.XH.H.G.G.m.m.m.b.b.c.i.r.u.u.$.$.$.#.+.",
"h t } ! t ! ! } } }  ...O.#.#.=.*.u.u.i.!.p.l.b.n.n.n._.m.'.XXXXXX.XoX.XoXoX.XoX.X.XXXG.G.G.m.n.b.b.l.t.i.u.y.*.$.$.+.$."
};
